<svg version="1.2" baseProfile="tiny" id="EdgeSVG_ojpRn" x="0px" y="0px" width="218.247px" height="118.434px" viewBox="0 0 218.247 118.434" xmlns:xlink="http://www.w3.org/1999/xlink" xmlns="http://www.w3.org/2000/svg">
  <g>
    <linearGradient id="SVGID_2_" gradientUnits="userSpaceOnUse" x1="163.2788" y1="9.8809" x2="163.2788" y2="104.7998">
      <stop offset="0" style="stop-color:#FFFFFF;stop-opacity:0.05"/>
      <stop offset="0.0166" style="stop-color:#FFFFFF;stop-opacity:0.2"/>
      <stop offset="0.1026" style="stop-color:#FFFFFF;stop-opacity:0.45"/>
      <stop offset="0.2615" style="stop-color:#FFFFFF;stop-opacity:0.25"/>
      <stop offset="0.7225" style="stop-color:#000000;stop-opacity:0.1"/>
      <stop offset="1" style="stop-color:#000000;stop-opacity:0.4"/>
    </linearGradient>
    <path fill="url(#SVGID_2_)" d="M181.97,10.987v92.707c0,0.606-0.402,1.105-0.892,1.105h-36.49V9.881h36.49&#xD;&#xA;&#x9;&#x9;&#x9;C181.568,9.881,181.97,10.377,181.97,10.987z"/>
    <linearGradient id="SVGID_3_" gradientUnits="userSpaceOnUse" x1="35.9595" y1="9.8809" x2="35.9595" y2="104.7998">
      <stop offset="0" style="stop-color:#FFFFFF;stop-opacity:0.05"/>
      <stop offset="0.0166" style="stop-color:#FFFFFF;stop-opacity:0.2"/>
      <stop offset="0.1026" style="stop-color:#FFFFFF;stop-opacity:0.45"/>
      <stop offset="0.2615" style="stop-color:#FFFFFF;stop-opacity:0.25"/>
      <stop offset="0.7225" style="stop-color:#000000;stop-opacity:0.1"/>
      <stop offset="1" style="stop-color:#000000;stop-opacity:0.4"/>
    </linearGradient>
    <path fill="url(#SVGID_3_)" d="M50.597,9.881v94.918H22.215c-0.491,0-0.892-0.499-0.892-1.105V10.987&#xD;&#xA;&#x9;&#x9;&#x9;c0-0.609,0.401-1.106,0.892-1.106H50.597z"/>
    <linearGradient id="SVGID_4_" gradientUnits="userSpaceOnUse" x1="51.6865" y1="8.2368" x2="51.6865" y2="106.625">
      <stop offset="0" style="stop-color:#FFFFFF;stop-opacity:0.05"/>
      <stop offset="0.0166" style="stop-color:#FFFFFF;stop-opacity:0.2"/>
      <stop offset="0.1026" style="stop-color:#FFFFFF;stop-opacity:0.45"/>
      <stop offset="0.2615" style="stop-color:#FFFFFF;stop-opacity:0.25"/>
      <stop offset="0.7225" style="stop-color:#000000;stop-opacity:0.1"/>
      <stop offset="1" style="stop-color:#000000;stop-opacity:0.4"/>
    </linearGradient>
    <path fill="url(#SVGID_4_)" d="M52.776,8.237v98.388c0,0,0-1.825-2.18-1.825V9.866C52.776,9.866,52.776,8.237,52.776,8.237z"/>
    <linearGradient id="SVGID_5_" gradientUnits="userSpaceOnUse" x1="143.4985" y1="8.2368" x2="143.4985" y2="106.625">
      <stop offset="0" style="stop-color:#FFFFFF;stop-opacity:0.05"/>
      <stop offset="0.0166" style="stop-color:#FFFFFF;stop-opacity:0.2"/>
      <stop offset="0.1026" style="stop-color:#FFFFFF;stop-opacity:0.45"/>
      <stop offset="0.2615" style="stop-color:#FFFFFF;stop-opacity:0.25"/>
      <stop offset="0.7225" style="stop-color:#000000;stop-opacity:0.1"/>
      <stop offset="1" style="stop-color:#000000;stop-opacity:0.4"/>
    </linearGradient>
    <path fill="url(#SVGID_5_)" d="M144.588,9.866v94.934c-2.179,0-2.179,1.825-2.179,1.825V8.237&#xD;&#xA;&#x9;&#x9;&#x9;C142.409,8.237,142.409,9.866,144.588,9.866z"/>
  </g>
  <linearGradient id="SVGID_6_" gradientUnits="userSpaceOnUse" x1="144.5879" y1="57.3403" x2="181.9697" y2="57.3403">
    <stop offset="0.9593" style="stop-color:#000000;stop-opacity:0"/>
    <stop offset="1" style="stop-color:#000000;stop-opacity:0.25"/>
  </linearGradient>
  <path fill="url(#SVGID_6_)" d="M181.97,10.987v92.707c0,0.606-0.402,1.105-0.892,1.105h-36.49V9.881h36.49&#xD;&#xA;&#x9;&#x9;C181.568,9.881,181.97,10.377,181.97,10.987z"/>
  <linearGradient id="SVGID_7_" gradientUnits="userSpaceOnUse" x1="50.5967" y1="57.3394" x2="21.3228" y2="57.3394">
    <stop offset="0.9593" style="stop-color:#000000;stop-opacity:0"/>
    <stop offset="1" style="stop-color:#000000;stop-opacity:0.25"/>
  </linearGradient>
  <path fill="url(#SVGID_7_)" d="M50.597,9.881v94.918H22.215c-0.491,0-0.892-0.499-0.892-1.105V10.987&#xD;&#xA;&#x9;&#x9;c0-0.609,0.401-1.106,0.892-1.106H50.597z"/>
  <linearGradient id="SVGID_8_" gradientUnits="userSpaceOnUse" x1="50.5967" y1="57.4302" x2="52.7764" y2="57.4302">
    <stop offset="0" style="stop-color:#000000;stop-opacity:0"/>
    <stop offset="1" style="stop-color:#000000;stop-opacity:0.25"/>
  </linearGradient>
  <path fill="url(#SVGID_8_)" d="M52.776,8.237v98.388c0,0,0-1.825-2.18-1.825V9.866C52.776,9.866,52.776,8.237,52.776,8.237z"/>
  <linearGradient id="SVGID_9_" gradientUnits="userSpaceOnUse" x1="144.5879" y1="57.4302" x2="142.4092" y2="57.4302">
    <stop offset="0" style="stop-color:#000000;stop-opacity:0"/>
    <stop offset="1" style="stop-color:#000000;stop-opacity:0.25"/>
  </linearGradient>
  <path fill="url(#SVGID_9_)" d="M144.588,9.866v94.934c-2.179,0-2.179,1.825-2.179,1.825V8.237&#xD;&#xA;&#x9;&#x9;C142.409,8.237,142.409,9.866,144.588,9.866z"/>
  <linearGradient id="SVGID_10_" gradientUnits="userSpaceOnUse" x1="82.5288" y1="108.1802" x2="112.6563" y2="108.1802">
    <stop offset="0.1176" style="stop-color:#FFFFFF;stop-opacity:0.25"/>
    <stop offset="1" style="stop-color:#FFFFFF;stop-opacity:0.1"/>
  </linearGradient>
  <path fill="url(#SVGID_10_)" d="M112.656,104.425v7.509H82.529v-2.227h26.426c1.665,0,3.184-1.236,3.38-2.756L112.656,104.425z"/>
  <path fill="#D4145A" d="M138.211,90.336c0.006,0.009,0.021,0.015,0.039,0.015h-0.024C138.217,90.348,138.211,90.342,138.211,90.336&#xD;&#xA;&#x9;&#x9;z"/>
  <linearGradient id="SVGID_11_" gradientUnits="userSpaceOnUse" x1="9.6875" y1="23.3271" x2="15.6102" y2="90.761">
    <stop offset="0" style="stop-color:#FFFFFF;stop-opacity:0.05"/>
    <stop offset="0.0166" style="stop-color:#FFFFFF;stop-opacity:0.2"/>
    <stop offset="0.1026" style="stop-color:#FFFFFF;stop-opacity:0.45"/>
    <stop offset="0.2615" style="stop-color:#FFFFFF;stop-opacity:0.25"/>
    <stop offset="0.7225" style="stop-color:#000000;stop-opacity:0.1"/>
    <stop offset="1" style="stop-color:#000000;stop-opacity:0.4"/>
  </linearGradient>
  <path fill="url(#SVGID_11_)" d="M21.323,22.938V57.29H1V26.963c0-0.818,0.666-1.57,1.475-1.671L21.323,22.938z"/>
  <linearGradient id="SVGID_12_" gradientUnits="userSpaceOnUse" x1="16.0723" y1="25.0747" x2="9.5938" y2="90.2288">
    <stop offset="0" style="stop-color:#FFFFFF;stop-opacity:0.05"/>
    <stop offset="0.0166" style="stop-color:#FFFFFF;stop-opacity:0.2"/>
    <stop offset="0.1026" style="stop-color:#FFFFFF;stop-opacity:0.45"/>
    <stop offset="0.2615" style="stop-color:#FFFFFF;stop-opacity:0.25"/>
    <stop offset="0.7225" style="stop-color:#000000;stop-opacity:0.1"/>
    <stop offset="1" style="stop-color:#000000;stop-opacity:0.4"/>
  </linearGradient>
  <path fill="url(#SVGID_12_)" d="M21.323,57.29v34.35L2.475,89.281C1.666,89.18,1,88.428,1,87.61V57.29H21.323z"/>
  <linearGradient id="SVGID_13_" gradientUnits="userSpaceOnUse" x1="21.3228" y1="57.2886" x2="1" y2="57.2886">
    <stop offset="0.8914" style="stop-color:#000000;stop-opacity:0"/>
    <stop offset="0.9868" style="stop-color:#000000;stop-opacity:0.2195"/>
    <stop offset="1" style="stop-color:#000000;stop-opacity:0.25"/>
  </linearGradient>
  <path fill="url(#SVGID_13_)" d="M21.323,22.938v68.701L2.475,89.281C1.666,89.18,1,88.428,1,87.61V26.963&#xD;&#xA;&#x9;&#x9;c0-0.818,0.666-1.57,1.475-1.671L21.323,22.938z"/>
  <linearGradient id="SVGID_14_" gradientUnits="userSpaceOnUse" x1="97.5928" y1="1.0005" x2="97.5928" y2="12.2891">
    <stop offset="0" style="stop-color:#FFFFFF;stop-opacity:0.35"/>
    <stop offset="0.0241" style="stop-color:#FFFFFF;stop-opacity:0.4"/>
    <stop offset="0.0498" style="stop-color:#FFFFFF;stop-opacity:0.3"/>
    <stop offset="0.0562" style="stop-color:#E5E5E5;stop-opacity:0.2843"/>
    <stop offset="0.0774" style="stop-color:#959595;stop-opacity:0.2321"/>
    <stop offset="0.0963" style="stop-color:#555555;stop-opacity:0.1857"/>
    <stop offset="0.1121" style="stop-color:#272727;stop-opacity:0.1469"/>
    <stop offset="0.1242" style="stop-color:#0B0B0B;stop-opacity:0.1171"/>
    <stop offset="0.1312" style="stop-color:#000000;stop-opacity:0.1"/>
    <stop offset="0.5673" style="stop-color:#000000;stop-opacity:0.0574"/>
    <stop offset="0.6425" style="stop-color:#000000;stop-opacity:0.05"/>
    <stop offset="0.8462" style="stop-color:#FFFFFF;stop-opacity:0.2"/>
    <stop offset="1" style="stop-color:#FFFFFF;stop-opacity:0.25"/>
  </linearGradient>
  <path fill="url(#SVGID_14_)" d="M142.409,10.004v2.253c0,0.235-0.65-0.874-1.44-2.277c-0.57-1.008-1.212-2.17-1.734-3.087&#xD;&#xA;&#x9;&#x9;c-0.534-0.932-0.943-1.608-1.024-1.608H56.974c-0.082,0-0.49,0.676-1.024,1.608c-0.521,0.917-1.164,2.079-1.734,3.087&#xD;&#xA;&#x9;&#x9;c-0.79,1.403-1.439,2.513-1.439,2.277v-2.253c0-0.169,0.556-1.224,1.265-2.518c0.229-0.419,0.475-0.865,0.723-1.311&#xD;&#xA;&#x9;&#x9;c1.091-1.977,2.226-4.019,2.226-4.252c0-0.451,0-0.451,0-0.905C56.99,1.006,56.986,1,56.981,1h81.223&#xD;&#xA;&#x9;&#x9;c-0.005,0-0.009,0.005-0.009,0.018c0,0.454,0,0.454,0,0.905c0,0.234,1.135,2.275,2.227,4.252c0.248,0.446,0.493,0.892,0.722,1.311&#xD;&#xA;&#x9;&#x9;C141.853,8.781,142.409,9.835,142.409,10.004z"/>
  <linearGradient id="SVGID_15_" gradientUnits="userSpaceOnUse" x1="97.5928" y1="5.2852" x2="97.5928" y2="17.7476">
    <stop offset="0" style="stop-color:#FFFFFF;stop-opacity:0.25"/>
    <stop offset="0.0241" style="stop-color:#FFFFFF;stop-opacity:0.3"/>
    <stop offset="0.0709" style="stop-color:#FFFFFF;stop-opacity:0.3"/>
    <stop offset="0.0807" style="stop-color:#E5E5E5;stop-opacity:0.2882"/>
    <stop offset="0.1134" style="stop-color:#959595;stop-opacity:0.249"/>
    <stop offset="0.1424" style="stop-color:#555555;stop-opacity:0.2143"/>
    <stop offset="0.1667" style="stop-color:#272727;stop-opacity:0.1852"/>
    <stop offset="0.1854" style="stop-color:#0B0B0B;stop-opacity:0.1629"/>
    <stop offset="0.1961" style="stop-color:#000000;stop-opacity:0.15"/>
    <stop offset="0.5949" style="stop-color:#000000;stop-opacity:0.1074"/>
    <stop offset="0.6637" style="stop-color:#000000;stop-opacity:0.1"/>
    <stop offset="0.8763" style="stop-color:#FFFFFF;stop-opacity:0.2"/>
    <stop offset="1" style="stop-color:#FFFFFF;stop-opacity:0.2"/>
  </linearGradient>
  <path fill="url(#SVGID_15_)" d="M142.409,14.663v3.039c0,0.366-1.471-1.541-2.675-3.039c-0.735-0.913-1.369-1.675-1.509-1.675&#xD;&#xA;&#x9;&#x9;H56.96c-0.14,0-0.775,0.762-1.509,1.675c-1.204,1.498-2.675,3.405-2.675,3.039v-3.039c0-0.165,0.316-0.81,0.778-1.675&#xD;&#xA;&#x9;&#x9;c0.464-0.874,1.076-1.965,1.653-3.008c0.703-1.271,1.356-2.463,1.637-3.087c0.093-0.208,0.146-0.352,0.146-0.416&#xD;&#xA;&#x9;&#x9;c0-0.581,0-0.581,0-1.161c0-0.021-0.005-0.031-0.016-0.031h81.237c-0.011,0-0.016,0.009-0.016,0.031c0,0.581,0,0.581,0,1.161&#xD;&#xA;&#x9;&#x9;c0,0.064,0.052,0.208,0.146,0.416c0.28,0.624,0.934,1.815,1.637,3.087c0.577,1.043,1.189,2.134,1.653,3.008&#xD;&#xA;&#x9;&#x9;C142.092,13.853,142.409,14.498,142.409,14.663z"/>
  <linearGradient id="SVGID_16_" gradientUnits="userSpaceOnUse" x1="97.5928" y1="12.9878" x2="97.5928" y2="25.8877">
    <stop offset="0" style="stop-color:#FFFFFF;stop-opacity:0.35"/>
    <stop offset="0.0241" style="stop-color:#FFFFFF;stop-opacity:0.25"/>
    <stop offset="0.0875" style="stop-color:#FFFFFF;stop-opacity:0.25"/>
    <stop offset="0.096" style="stop-color:#E5E5E5;stop-opacity:0.2461"/>
    <stop offset="0.1244" style="stop-color:#959595;stop-opacity:0.233"/>
    <stop offset="0.1496" style="stop-color:#555555;stop-opacity:0.2214"/>
    <stop offset="0.1706" style="stop-color:#272727;stop-opacity:0.2117"/>
    <stop offset="0.1868" style="stop-color:#0B0B0B;stop-opacity:0.2043"/>
    <stop offset="0.1961" style="stop-color:#000000;stop-opacity:0.2"/>
    <stop offset="0.4225" style="stop-color:#000000;stop-opacity:0.1147"/>
    <stop offset="0.4615" style="stop-color:#000000;stop-opacity:0.1"/>
    <stop offset="0.6139" style="stop-color:#FFFFFF;stop-opacity:0.15"/>
    <stop offset="1" style="stop-color:#FFFFFF;stop-opacity:0.15"/>
  </linearGradient>
  <path fill="url(#SVGID_16_)" d="M142.409,20.749v5.074c0,0.592-3.663-3.078-4.158-3.078H56.935c-0.496,0-4.158,3.67-4.158,3.078&#xD;&#xA;&#x9;&#x9;v-5.074c0-0.544,3.226-4.661,4.033-6.086c0.114-0.205,0.18-0.352,0.18-0.428c0-0.602,0-0.602,0-1.204&#xD;&#xA;&#x9;&#x9;c0-0.03-0.01-0.043-0.029-0.043h81.264c-0.019,0-0.029,0.013-0.029,0.043c0,0.602,0,0.602,0,1.204c0,0.076,0.066,0.223,0.18,0.428&#xD;&#xA;&#x9;&#x9;C139.183,16.087,142.409,20.205,142.409,20.749z"/>
  <linearGradient id="SVGID_17_" gradientUnits="userSpaceOnUse" x1="97.5928" y1="22.7446" x2="97.5928" y2="34.9902">
    <stop offset="0" style="stop-color:#FFFFFF;stop-opacity:0.35"/>
    <stop offset="0.0241" style="stop-color:#FFFFFF;stop-opacity:0.2"/>
    <stop offset="0.0875" style="stop-color:#FFFFFF;stop-opacity:0.2"/>
    <stop offset="0.096" style="stop-color:#E5E5E5;stop-opacity:0.2039"/>
    <stop offset="0.1244" style="stop-color:#959595;stop-opacity:0.217"/>
    <stop offset="0.1496" style="stop-color:#555555;stop-opacity:0.2286"/>
    <stop offset="0.1706" style="stop-color:#272727;stop-opacity:0.2383"/>
    <stop offset="0.1868" style="stop-color:#0B0B0B;stop-opacity:0.2457"/>
    <stop offset="0.1961" style="stop-color:#000000;stop-opacity:0.25"/>
    <stop offset="0.4714" style="stop-color:#000000;stop-opacity:0.0794"/>
    <stop offset="0.5189" style="stop-color:#000000;stop-opacity:0.05"/>
    <stop offset="0.5596" style="stop-color:#000000;stop-opacity:0"/>
    <stop offset="0.5611" style="stop-color:#FFFFFF;stop-opacity:0"/>
    <stop offset="0.6078" style="stop-color:#FFFFFF;stop-opacity:0.1"/>
    <stop offset="1" style="stop-color:#FFFFFF;stop-opacity:0.1"/>
  </linearGradient>
  <path fill="url(#SVGID_17_)" d="M142.409,28.97v5.923c0,0.59-3.424-1.721-4.1-1.721H56.875c-0.675,0-4.099,2.311-4.099,1.721V28.97&#xD;&#xA;&#x9;&#x9;c0-0.636,4.213-4.31,4.213-4.927c0-0.621,0-0.621,0-1.238c0-0.042-0.019-0.061-0.055-0.061h81.316&#xD;&#xA;&#x9;&#x9;c-0.037,0-0.056,0.018-0.056,0.061c0,0.618,0,0.618,0,1.238C138.195,24.661,142.409,28.334,142.409,28.97z"/>
  <path fill="#D4145A" d="M138.25,90.351h-0.024c-0.009-0.003-0.015-0.009-0.015-0.015C138.217,90.345,138.232,90.351,138.25,90.351z&#xD;&#xA;&#x9;&#x9;"/>
  <path fill="#D4145A" d="M138.211,90.336c0.006,0.009,0.021,0.015,0.039,0.015h-0.024C138.217,90.348,138.211,90.342,138.211,90.336&#xD;&#xA;&#x9;&#x9;z"/>
  <path fill="#D4145A" d="M138.25,90.351h-0.024c-0.009-0.003-0.015-0.009-0.015-0.015C138.217,90.345,138.232,90.351,138.25,90.351z&#xD;&#xA;&#x9;&#x9;"/>
  <path fill="#D4145A" d="M138.25,90.351h-0.024c-0.009-0.003-0.015-0.009-0.015-0.015C138.217,90.345,138.232,90.351,138.25,90.351z&#xD;&#xA;&#x9;&#x9;"/>
  <path fill="#D4145A" d="M138.25,90.351h-0.024c-0.009-0.003-0.015-0.009-0.015-0.015C138.217,90.345,138.232,90.351,138.25,90.351z&#xD;&#xA;&#x9;&#x9;"/>
  <path fill="#006092" d="M56.974,90.336v0.003c-0.003,0.006-0.009,0.009-0.015,0.012h-0.024&#xD;&#xA;&#x9;&#x9;C56.953,90.351,56.968,90.345,56.974,90.336z"/>
  <linearGradient id="SVGID_18_" gradientUnits="userSpaceOnUse" x1="97.5928" y1="33.1733" x2="97.5928" y2="44.8823">
    <stop offset="0" style="stop-color:#FFFFFF;stop-opacity:0.35"/>
    <stop offset="0.0241" style="stop-color:#FFFFFF;stop-opacity:0.15"/>
    <stop offset="0.0875" style="stop-color:#FFFFFF;stop-opacity:0.15"/>
    <stop offset="0.096" style="stop-color:#E5E5E5;stop-opacity:0.1618"/>
    <stop offset="0.1244" style="stop-color:#959595;stop-opacity:0.201"/>
    <stop offset="0.1496" style="stop-color:#555555;stop-opacity:0.2357"/>
    <stop offset="0.1706" style="stop-color:#272727;stop-opacity:0.2648"/>
    <stop offset="0.1868" style="stop-color:#0B0B0B;stop-opacity:0.2871"/>
    <stop offset="0.1961" style="stop-color:#000000;stop-opacity:0.3"/>
    <stop offset="0.4919" style="stop-color:#000000;stop-opacity:0.0868"/>
    <stop offset="0.543" style="stop-color:#000000;stop-opacity:0.05"/>
    <stop offset="0.5837" style="stop-color:#000000;stop-opacity:0"/>
    <stop offset="0.5867" style="stop-color:#FFFFFF;stop-opacity:0"/>
    <stop offset="0.6652" style="stop-color:#FFFFFF;stop-opacity:0.05"/>
    <stop offset="1" style="stop-color:#FFFFFF;stop-opacity:0.05"/>
  </linearGradient>
  <path fill="url(#SVGID_18_)" d="M142.409,38.052v6.659c0,0.532-2.696-0.348-3.776-0.39c-0.056-0.003-0.11-0.003-0.158,0h-26.141&#xD;&#xA;&#x9;&#x9;c-0.023-0.154-0.057-0.306-0.104-0.448c-0.405-1.303-1.778-2.305-3.276-2.305H62.744c-1.498,0-2.875,1.002-3.276,2.305&#xD;&#xA;&#x9;&#x9;c-0.047,0.143-0.083,0.294-0.098,0.448h-2.661c-0.047-0.003-0.101-0.003-0.157,0c-0.425,0.018-1.103,0.163-1.766,0.3&#xD;&#xA;&#x9;&#x9;c-0.146,0.03-0.289,0.06-0.431,0.09c-0.3,0.06-0.586,0.113-0.829,0.143c-0.021,0.003-0.042,0.006-0.063,0.006&#xD;&#xA;&#x9;&#x9;c-0.021,0.003-0.039,0.006-0.06,0.006c-0.083,0.006-0.157,0.012-0.226,0.012h-0.016c-0.068,0-0.13-0.003-0.181-0.012&#xD;&#xA;&#x9;&#x9;c-0.015,0-0.027-0.003-0.039-0.009c-0.006,0.003-0.012,0-0.018-0.003c-0.006,0-0.012,0-0.018-0.003&#xD;&#xA;&#x9;&#x9;c-0.006-0.003-0.012-0.003-0.018-0.006c-0.009-0.003-0.015-0.006-0.023-0.012c-0.015-0.007-0.03-0.015-0.039-0.024&#xD;&#xA;&#x9;&#x9;c-0.009-0.009-0.018-0.015-0.023-0.023c-0.018-0.021-0.026-0.045-0.026-0.074v-6.659c0-0.651,4.212-2.896,4.212-3.529&#xD;&#xA;&#x9;&#x9;c0-0.63,0-0.63,0-1.264c0-0.06-0.041-0.086-0.112-0.086h81.434c-0.071,0-0.113,0.026-0.113,0.086c0,0.634,0,0.634,0,1.264&#xD;&#xA;&#x9;&#x9;C138.196,35.157,142.409,37.401,142.409,38.052z"/>
  <linearGradient id="SVGID_19_" gradientUnits="userSpaceOnUse" x1="97.5928" y1="44.3218" x2="97.5928" y2="54.9888">
    <stop offset="0" style="stop-color:#FFFFFF;stop-opacity:0.25"/>
    <stop offset="0.0241" style="stop-color:#FFFFFF;stop-opacity:0.1"/>
    <stop offset="0.0995" style="stop-color:#FFFFFF;stop-opacity:0.1"/>
    <stop offset="0.1078" style="stop-color:#E5E5E5;stop-opacity:0.1197"/>
    <stop offset="0.1354" style="stop-color:#959595;stop-opacity:0.1849"/>
    <stop offset="0.1599" style="stop-color:#555555;stop-opacity:0.2429"/>
    <stop offset="0.1804" style="stop-color:#272727;stop-opacity:0.2914"/>
    <stop offset="0.1961" style="stop-color:#0B0B0B;stop-opacity:0.3286"/>
    <stop offset="0.2051" style="stop-color:#000000;stop-opacity:0.35"/>
    <stop offset="0.4061" style="stop-color:#000000;stop-opacity:0.1219"/>
    <stop offset="0.4253" style="stop-color:#000000;stop-opacity:0.1"/>
    <stop offset="0.816" style="stop-color:#000000;stop-opacity:0"/>
    <stop offset="0.9231" style="stop-color:#FFFFFF;stop-opacity:0"/>
    <stop offset="1" style="stop-color:#FFFFFF;stop-opacity:0.05"/>
  </linearGradient>
  <path fill="url(#SVGID_19_)" d="M59.37,44.322c0,0.003,0,0.003,0,0.006l-1.329,10.661h-5.265v-6.903c0-0.071,0.05-0.148,0.14-0.226&#xD;&#xA;&#x9;&#x9;c0.026-0.027,0.053-0.048,0.086-0.071c0.065-0.048,0.14-0.096,0.226-0.144c0.042-0.026,0.087-0.05,0.134-0.074&#xD;&#xA;&#x9;&#x9;c0.047-0.023,0.095-0.05,0.149-0.074c0.077-0.038,0.157-0.077,0.24-0.112c0.226-0.104,0.479-0.205,0.737-0.31&#xD;&#xA;&#x9;&#x9;c0.229-0.092,0.461-0.182,0.69-0.273c0.324-0.131,0.642-0.259,0.916-0.384c0.057-0.026,0.11-0.05,0.161-0.074&#xD;&#xA;&#x9;&#x9;c0.05-0.023,0.101-0.05,0.149-0.074c0.354-0.182,0.585-0.351,0.585-0.503c0-0.642,0-0.642,0-1.287c0-0.035-0.015-0.064-0.041-0.089&#xD;&#xA;&#x9;&#x9;c-0.006-0.009-0.018-0.018-0.033-0.023c-0.047-0.027-0.119-0.042-0.205-0.045H59.37z M138.196,45.766c0-0.642,0-0.642,0-1.283&#xD;&#xA;&#x9;&#x9;c0-0.102,0.104-0.152,0.279-0.161h-26.141c0,0.003,0,0.003,0,0.006l1.353,10.661h28.722v-6.9&#xD;&#xA;&#x9;&#x9;C142.409,47.425,138.196,46.409,138.196,45.766z"/>
  <linearGradient id="SVGID_20_" gradientUnits="userSpaceOnUse" x1="86.0874" y1="43.8735" x2="86.0874" y2="107.0591">
    <stop offset="0" style="stop-color:#FFFFFF;stop-opacity:0.05"/>
    <stop offset="0.001" style="stop-color:#FFFFFF;stop-opacity:0.0577"/>
    <stop offset="0.0271" style="stop-color:#FFFFFF;stop-opacity:0.25"/>
    <stop offset="0.0354" style="stop-color:#FFFFFF;stop-opacity:0.2386"/>
    <stop offset="0.0995" style="stop-color:#FFFFFF;stop-opacity:0.15"/>
    <stop offset="0.2308" style="stop-color:#FFFFFF;stop-opacity:0.25"/>
    <stop offset="0.2405" style="stop-color:#E3E3E3;stop-opacity:0.2414"/>
    <stop offset="0.2697" style="stop-color:#939393;stop-opacity:0.2156"/>
    <stop offset="0.2957" style="stop-color:#545454;stop-opacity:0.1926"/>
    <stop offset="0.3175" style="stop-color:#272727;stop-opacity:0.1734"/>
    <stop offset="0.3342" style="stop-color:#0A0A0A;stop-opacity:0.1586"/>
    <stop offset="0.3439" style="stop-color:#000000;stop-opacity:0.15"/>
    <stop offset="0.6697" style="stop-color:#000000;stop-opacity:0.1"/>
    <stop offset="0.9623" style="stop-color:#000000;stop-opacity:0.2"/>
    <stop offset="1" style="stop-color:#000000;stop-opacity:0.35"/>
  </linearGradient>
  <path fill="url(#SVGID_20_)" d="M105.316,92.04c0.883,5.185,1.748,10.197,2.452,14.252c-0.393,0.464-1.008,0.768-1.7,0.768H65.916&#xD;&#xA;&#x9;&#x9;c-0.559,0-1.073-0.193-1.454-0.523c0.788-4.533,1.781-10.305,2.783-16.185c0.512-3.003,1.025-6.035,1.513-8.945&#xD;&#xA;&#x9;&#x9;c0.05-0.298,0.101-0.592,0.149-0.886c0.633-3.761,1.216-7.293,1.694-10.26c0.746-4.638,1.23-7.908,1.23-8.559&#xD;&#xA;&#x9;&#x9;c0-0.164-0.035-0.39-0.101-0.666c-0.071-0.315-0.19-0.702-0.342-1.142c-0.432-1.267-1.148-2.991-1.998-4.905&#xD;&#xA;&#x9;&#x9;c-1.525-3.434-3.481-7.477-4.995-10.542c0.047-0.045,0.098-0.086,0.149-0.125c0.375-0.282,0.853-0.448,1.37-0.448h40.152&#xD;&#xA;&#x9;&#x9;c0.517,0,0.996,0.169,1.367,0.448c0.128,0.099,0.244,0.208,0.342,0.327c-0.88,1.787-1.902,3.886-2.898,5.996&#xD;&#xA;&#x9;&#x9;c-0.25,0.529-0.496,1.056-0.74,1.582c-0.437,0.942-0.859,1.873-1.254,2.762c-0.85,1.914-1.567,3.639-2,4.905&#xD;&#xA;&#x9;&#x9;c-0.152,0.439-0.265,0.826-0.342,1.142c-0.065,0.276-0.098,0.502-0.098,0.666c0,0.65,0.485,3.921,1.231,8.559&#xD;&#xA;&#x9;&#x9;c0.479,2.967,1.061,6.499,1.689,10.26c0.05,0.294,0.098,0.588,0.148,0.886c0.134,0.797,0.271,1.605,0.407,2.417&#xD;&#xA;&#x9;&#x9;c0.092,0.541,0.184,1.088,0.276,1.632c0.185,1.095,0.372,2.194,0.559,3.294c0.09,0.535,0.182,1.07,0.271,1.603&#xD;&#xA;&#x9;&#x9;c0.003,0.003,0.003,0.003,0.003,0.003c0.003,0.016,0.003,0.029,0.006,0.042C105.129,90.946,105.221,91.493,105.316,92.04z"/>
  <linearGradient id="SVGID_21_" gradientUnits="userSpaceOnUse" x1="97.5928" y1="54.9888" x2="97.5928" y2="59.894">
    <stop offset="0" style="stop-color:#FFFFFF;stop-opacity:0.05"/>
    <stop offset="0.0315" style="stop-color:#FFFFFF;stop-opacity:0.0941"/>
    <stop offset="0.2142" style="stop-color:#FFFFFF;stop-opacity:0.35"/>
    <stop offset="0.3122" style="stop-color:#FFFFFF;stop-opacity:0.1"/>
    <stop offset="0.6275" style="stop-color:#000000;stop-opacity:0"/>
    <stop offset="0.7421" style="stop-color:#000000;stop-opacity:0.35"/>
    <stop offset="0.9774" style="stop-color:#000000;stop-opacity:0.1219"/>
    <stop offset="1" style="stop-color:#000000;stop-opacity:0.1"/>
  </linearGradient>
  <path fill="url(#SVGID_21_)" d="M142.409,59.894h-28.097l-0.625-4.905h28.722c0,0.817-4.213,0.817-4.213,1.635&#xD;&#xA;&#x9;&#x9;c0,0.818,0,0.818,0,1.635C138.196,59.077,142.409,59.077,142.409,59.894z M52.776,54.989c0,0.074,0.038,0.146,0.104,0.208&#xD;&#xA;&#x9;&#x9;c0.024,0.021,0.048,0.042,0.077,0.063c0.015,0.009,0.03,0.018,0.045,0.029c0.033,0.019,0.068,0.036,0.104,0.057&#xD;&#xA;&#x9;&#x9;c0.47,0.229,1.359,0.375,2.167,0.538c0.065,0.012,0.131,0.023,0.193,0.039c0.125,0.026,0.25,0.053,0.366,0.08&#xD;&#xA;&#x9;&#x9;c0.06,0.015,0.116,0.026,0.173,0.041c0.056,0.016,0.113,0.03,0.163,0.045c0.057,0.016,0.113,0.033,0.164,0.051&#xD;&#xA;&#x9;&#x9;c0.056,0.015,0.107,0.032,0.155,0.054c0.021,0.006,0.042,0.015,0.06,0.023c0.146,0.06,0.262,0.125,0.339,0.199&#xD;&#xA;&#x9;&#x9;c0.068,0.063,0.104,0.131,0.104,0.205c0,0.821,0,0.821,0,1.636c0,0.077-0.035,0.145-0.104,0.211&#xD;&#xA;&#x9;&#x9;c-0.024,0.021-0.048,0.041-0.077,0.063c-0.016,0.008-0.03,0.018-0.045,0.029c-0.033,0.018-0.068,0.035-0.104,0.057&#xD;&#xA;&#x9;&#x9;c-0.47,0.229-1.359,0.375-2.17,0.538c-0.065,0.012-0.128,0.023-0.193,0.038c-0.08,0.016-0.157,0.033-0.234,0.051&#xD;&#xA;&#x9;&#x9;c-0.152,0.036-0.298,0.071-0.435,0.107c-0.101,0.026-0.196,0.057-0.285,0.089c-0.044,0.015-0.086,0.029-0.125,0.048&#xD;&#xA;&#x9;&#x9;c-0.038,0.015-0.074,0.033-0.11,0.051c-0.095,0.044-0.172,0.095-0.226,0.148c-0.068,0.063-0.104,0.131-0.104,0.205v0.003h4.652&#xD;&#xA;&#x9;&#x9;l0.612-4.905H52.776z"/>
  <path fill="#006092" d="M56.974,90.336v0.003c-0.003,0.006-0.009,0.009-0.015,0.012h-0.024&#xD;&#xA;&#x9;&#x9;C56.953,90.351,56.968,90.345,56.974,90.336z"/>
  <path fill="#006092" d="M55.999,70.198c-0.14-0.021-0.292-0.051-0.446-0.08C55.707,70.147,55.859,70.174,55.999,70.198z"/>
  <linearGradient id="SVGID_22_" gradientUnits="userSpaceOnUse" x1="97.5928" y1="69.7036" x2="97.5928" y2="80.52">
    <stop offset="0" style="stop-color:#000000;stop-opacity:0.2"/>
    <stop offset="0.4646" style="stop-color:#000000;stop-opacity:0"/>
    <stop offset="0.4962" style="stop-color:#FFFFFF;stop-opacity:0"/>
    <stop offset="0.6772" style="stop-color:#FFFFFF;stop-opacity:0.3"/>
    <stop offset="0.8273" style="stop-color:#FFFFFF;stop-opacity:0.1285"/>
    <stop offset="0.8522" style="stop-color:#FFFFFF;stop-opacity:0.1"/>
    <stop offset="0.9457" style="stop-color:#000000;stop-opacity:0"/>
    <stop offset="1" style="stop-color:#000000;stop-opacity:0.25"/>
  </linearGradient>
  <path fill="url(#SVGID_22_)" d="M55.734,73.486c-0.152,1.201-0.182,3-0.09,4.45c-0.154-0.106-0.315-0.217-0.476-0.33&#xD;&#xA;&#x9;&#x9;c-0.083-0.057-0.163-0.109-0.246-0.169c-0.342-0.231-0.687-0.47-0.996-0.692c-0.06-0.042-0.119-0.087-0.176-0.128&#xD;&#xA;&#x9;&#x9;c-0.229-0.17-0.434-0.327-0.595-0.476c-0.056-0.051-0.109-0.099-0.154-0.143c-0.125-0.125-0.202-0.235-0.22-0.321&#xD;&#xA;&#x9;&#x9;c-0.006-0.015-0.006-0.026-0.006-0.039v-5.765c0-0.148,0.211-0.188,0.538-0.163c0.112,0.009,0.237,0.023,0.374,0.042&#xD;&#xA;&#x9;&#x9;c0.137,0.021,0.283,0.047,0.434,0.074c0.078,0.012,0.155,0.026,0.232,0.044c0.158,0.03,0.318,0.063,0.481,0.099&#xD;&#xA;&#x9;&#x9;c0.161,0.035,0.324,0.068,0.482,0.101c0.08,0.019,0.161,0.033,0.235,0.048c0.154,0.029,0.306,0.06,0.446,0.08&#xD;&#xA;&#x9;&#x9;c0.047,0.009,0.095,0.016,0.143,0.021L55.734,73.486z M138.633,70.26c-0.056,0.003-0.11,0.003-0.158,0h-22.847l0.333,2.619&#xD;&#xA;&#x9;&#x9;c0.193,1.52,0.193,3.999,0,5.518l-0.268,2.123h22.615c-0.071,0-0.113-0.027-0.113-0.09c0-0.633,0-0.633,0-1.26&#xD;&#xA;&#x9;&#x9;c0-0.634,4.213-2.881,4.213-3.532v-5.765C142.409,69.342,139.713,70.219,138.633,70.26z"/>
  <path fill="#006092" d="M56.522,78.084c-0.015-0.192-0.027-0.398-0.036-0.605C56.498,77.686,56.507,77.889,56.522,78.084z"/>
  <path fill="#006092" d="M109.642,75.965c-0.033,0.146-0.048,0.3-0.048,0.455c0,0.154,0.015,0.309,0.048,0.455&#xD;&#xA;&#x9;&#x9;c-0.029-0.146-0.045-0.301-0.045-0.455C109.597,76.265,109.612,76.111,109.642,75.965z M112.531,78.582&#xD;&#xA;&#x9;&#x9;c0.143-0.042,0.279-0.101,0.407-0.173C112.811,78.481,112.674,78.537,112.531,78.582z M112.531,74.252&#xD;&#xA;&#x9;&#x9;c0.143,0.045,0.279,0.104,0.407,0.173C112.811,74.354,112.674,74.294,112.531,74.252z M114.518,76.352v0.137&#xD;&#xA;&#x9;&#x9;c0.003-0.023,0.003-0.045,0.003-0.068S114.521,76.375,114.518,76.352z"/>
  <linearGradient id="SVGID_23_" gradientUnits="userSpaceOnUse" x1="97.5928" y1="59.894" x2="97.5928" y2="70.2603">
    <stop offset="0" style="stop-color:#000000;stop-opacity:0.1"/>
    <stop offset="0.5354" style="stop-color:#000000;stop-opacity:0"/>
    <stop offset="0.5777" style="stop-color:#FFFFFF;stop-opacity:0"/>
    <stop offset="0.7059" style="stop-color:#FFFFFF;stop-opacity:0.35"/>
    <stop offset="0.8314" style="stop-color:#FFFFFF;stop-opacity:0.1356"/>
    <stop offset="0.8522" style="stop-color:#FFFFFF;stop-opacity:0.1"/>
    <stop offset="0.9457" style="stop-color:#000000;stop-opacity:0"/>
    <stop offset="1" style="stop-color:#000000;stop-opacity:0.25"/>
  </linearGradient>
  <path fill="url(#SVGID_23_)" d="M57.429,59.894l-0.143,1.142l-0.907,7.266c-0.035-0.018-0.074-0.039-0.112-0.057&#xD;&#xA;&#x9;&#x9;c-0.054-0.026-0.113-0.053-0.173-0.08c-0.054-0.023-0.11-0.051-0.169-0.074c-0.767-0.336-1.784-0.692-2.453-1.022&#xD;&#xA;&#x9;&#x9;c-0.036-0.019-0.068-0.036-0.101-0.054c-0.003,0-0.006,0-0.009-0.003c-0.03-0.015-0.06-0.03-0.086-0.048&#xD;&#xA;&#x9;&#x9;c-0.095-0.051-0.182-0.104-0.253-0.154c-0.065-0.045-0.119-0.09-0.157-0.134c-0.03-0.032-0.051-0.063-0.065-0.093&#xD;&#xA;&#x9;&#x9;c-0.009-0.015-0.015-0.029-0.018-0.044c-0.003-0.015-0.006-0.027-0.006-0.042v-6.603H57.429z M114.313,59.894l0.143,1.142&#xD;&#xA;&#x9;&#x9;l1.174,9.225h22.847c-0.175-0.009-0.279-0.057-0.279-0.157c0-0.646,0-0.646,0-1.288c0-0.642,4.213-1.655,4.213-2.318v-6.603&#xD;&#xA;&#x9;&#x9;H114.313z"/>
  <path fill="#006092" d="M55.999,70.198c-0.14-0.021-0.292-0.051-0.446-0.08C55.707,70.147,55.859,70.174,55.999,70.198z"/>
  <path fill="#006092" d="M56.974,90.336v0.003c-0.003,0.006-0.009,0.009-0.015,0.012h-0.024&#xD;&#xA;&#x9;&#x9;C56.953,90.351,56.968,90.345,56.974,90.336z"/>
  <path fill="#006092" d="M56.974,90.336v0.003c-0.003,0.006-0.009,0.009-0.015,0.012h-0.024&#xD;&#xA;&#x9;&#x9;C56.953,90.351,56.968,90.345,56.974,90.336z"/>
  <linearGradient id="SVGID_24_" gradientUnits="userSpaceOnUse" x1="52.7764" y1="102.3228" x2="142.4092" y2="102.3228">
    <stop offset="0" style="stop-color:#000000;stop-opacity:0.25"/>
    <stop offset="0.0151" style="stop-color:#000000;stop-opacity:0"/>
    <stop offset="0.9849" style="stop-color:#000000;stop-opacity:0"/>
    <stop offset="1" style="stop-color:#000000;stop-opacity:0.25"/>
  </linearGradient>
  <path fill="url(#SVGID_24_)" d="M142.409,87.277v30.157H52.776V87.277c0-0.059,0.038-0.077,0.106-0.056&#xD;&#xA;&#x9;&#x9;c0.021,0.002,0.042,0.012,0.063,0.023c0.045,0.021,0.098,0.051,0.161,0.089c0.03,0.019,0.063,0.039,0.095,0.063&#xD;&#xA;&#x9;&#x9;c0.375,0.256,0.945,0.743,1.534,1.252c0.11,0.095,0.22,0.19,0.327,0.282c0.146,0.128,0.291,0.253,0.431,0.371&#xD;&#xA;&#x9;&#x9;c0.134,0.113,0.262,0.224,0.384,0.324c0.077,0.065,0.154,0.128,0.226,0.188c0.024,0.015,0.045,0.033,0.065,0.051&#xD;&#xA;&#x9;&#x9;c0.048,0.039,0.092,0.074,0.134,0.104c0.262,0.203,0.467,0.342,0.583,0.378c0.021,0.006,0.035,0.009,0.05,0.009&#xD;&#xA;&#x9;&#x9;c0.009,0,0.018,0,0.024-0.003h0.253l2.149,16.601c0.193,1.52,1.715,2.756,3.383,2.756h19.785v2.227h30.127v-7.509l1.79-14.074&#xD;&#xA;&#x9;&#x9;h23.78c0.006,0.003,0.015,0.003,0.024,0.003c0.101,0,0.33-0.151,0.633-0.387c0.042-0.029,0.086-0.064,0.134-0.104&#xD;&#xA;&#x9;&#x9;c0.021-0.018,0.042-0.036,0.065-0.051c0.071-0.06,0.149-0.122,0.226-0.188c0.351-0.291,0.75-0.639,1.142-0.978&#xD;&#xA;&#x9;&#x9;C141.452,87.783,142.409,86.974,142.409,87.277z"/>
  <linearGradient id="SVGID_25_" gradientUnits="userSpaceOnUse" x1="97.5928" y1="78.7026" x2="97.5928" y2="90.3511">
    <stop offset="0" style="stop-color:#000000;stop-opacity:0.25"/>
    <stop offset="0.3783" style="stop-color:#000000;stop-opacity:0.036"/>
    <stop offset="0.4419" style="stop-color:#000000;stop-opacity:0"/>
    <stop offset="0.4525" style="stop-color:#FFFFFF;stop-opacity:0"/>
    <stop offset="0.6772" style="stop-color:#FFFFFF;stop-opacity:0.25"/>
    <stop offset="0.8545" style="stop-color:#FFFFFF;stop-opacity:0.1213"/>
    <stop offset="0.8839" style="stop-color:#FFFFFF;stop-opacity:0.1"/>
    <stop offset="0.9457" style="stop-color:#000000;stop-opacity:0"/>
    <stop offset="1" style="stop-color:#000000;stop-opacity:0.25"/>
  </linearGradient>
  <path fill="url(#SVGID_25_)" d="M138.196,89.055c0,0.618,0,0.618,0,1.236c0,0.042,0.018,0.06,0.054,0.06h-23.804l1.136-8.945&#xD;&#xA;&#x9;&#x9;l0.113-0.886h22.615c0.675,0,4.1-2.311,4.1-1.722v5.327C142.409,84.762,138.196,88.437,138.196,89.055z M56.974,90.336v0.003&#xD;&#xA;&#x9;&#x9;c-0.003,0.006-0.009,0.009-0.015,0.012h0.253l-1.16-8.945l-0.164-1.27c-0.401-0.202-0.862-0.455-1.308-0.692&#xD;&#xA;&#x9;&#x9;c-0.068-0.039-0.137-0.074-0.205-0.11c-0.11-0.056-0.214-0.112-0.318-0.166c-0.104-0.054-0.202-0.104-0.298-0.152&#xD;&#xA;&#x9;&#x9;c-0.068-0.029-0.134-0.062-0.196-0.092c-0.041-0.018-0.083-0.036-0.122-0.054c-0.119-0.05-0.226-0.092-0.318-0.121&#xD;&#xA;&#x9;&#x9;c-0.027-0.01-0.051-0.016-0.074-0.021c-0.003-0.003-0.009-0.003-0.012-0.003c-0.027-0.009-0.05-0.012-0.074-0.015&#xD;&#xA;&#x9;&#x9;c-0.119-0.018-0.185,0.009-0.187,0.089v5.327c0,0.637,4.212,4.312,4.212,4.93c0,0.621,0,0.621,0,1.239&#xD;&#xA;&#x9;&#x9;C56.988,90.313,56.985,90.328,56.974,90.336z"/>
  <path fill="#006092" d="M56.974,90.336v0.003c-0.003,0.006-0.009,0.009-0.015,0.012h-0.024&#xD;&#xA;&#x9;&#x9;C56.953,90.351,56.968,90.345,56.974,90.336z"/>
  <path fill="#006092" d="M56.974,90.336v0.003c-0.003,0.006-0.009,0.009-0.015,0.012h-0.024&#xD;&#xA;&#x9;&#x9;C56.953,90.351,56.968,90.345,56.974,90.336z"/>
  <linearGradient id="SVGID_26_" gradientUnits="userSpaceOnUse" x1="82.5288" y1="108.1802" x2="112.6563" y2="108.1802">
    <stop offset="0" style="stop-color:#000000;stop-opacity:0.25"/>
    <stop offset="0.0362" style="stop-color:#000000;stop-opacity:0"/>
    <stop offset="0.9593" style="stop-color:#000000;stop-opacity:0"/>
    <stop offset="1" style="stop-color:#000000;stop-opacity:0.25"/>
  </linearGradient>
  <path fill="url(#SVGID_26_)" d="M112.656,104.425v7.509H82.529v-2.227h26.426c1.665,0,3.184-1.236,3.38-2.756L112.656,104.425z"/>
  <path fill="#006092" d="M56.974,90.336v0.003c-0.003,0.006-0.009,0.009-0.015,0.012h-0.024&#xD;&#xA;&#x9;&#x9;C56.953,90.351,56.968,90.345,56.974,90.336z"/>
  <path fill="#006092" d="M56.974,90.336v0.003c-0.003,0.006-0.009,0.009-0.015,0.012h-0.024&#xD;&#xA;&#x9;&#x9;C56.953,90.351,56.968,90.345,56.974,90.336z"/>
  <linearGradient id="SVGID_27_" gradientUnits="userSpaceOnUse" x1="85.8501" y1="41.5688" x2="85.8501" y2="109.7075">
    <stop offset="0" style="stop-color:#FFFFFF;stop-opacity:0.35"/>
    <stop offset="0.0422" style="stop-color:#FFFFFF;stop-opacity:0.2"/>
    <stop offset="0.4646" style="stop-color:#FFFFFF;stop-opacity:0.1"/>
    <stop offset="0.5234" style="stop-color:#000000;stop-opacity:0.25"/>
    <stop offset="0.9548" style="stop-color:#000000;stop-opacity:0.15"/>
    <stop offset="1" style="stop-color:#000000;stop-opacity:0.35"/>
  </linearGradient>
  <path fill="url(#SVGID_27_)" d="M115.962,72.879l-0.333-2.619l-1.174-9.225l-0.143-1.142l-0.625-4.905l-1.353-10.661&#xD;&#xA;&#x9;&#x9;c0-0.003,0-0.003,0-0.006c-0.023-0.154-0.057-0.306-0.104-0.448c-0.405-1.303-1.778-2.305-3.276-2.305H62.744&#xD;&#xA;&#x9;&#x9;c-1.498,0-2.875,1.002-3.276,2.305c-0.047,0.143-0.083,0.294-0.098,0.448c0,0.003,0,0.003,0,0.006l-1.329,10.661l-0.612,4.905&#xD;&#xA;&#x9;&#x9;l-0.143,1.142l-0.907,7.266l-0.237,1.918l-0.407,3.267c-0.152,1.201-0.182,3-0.09,4.45c0.024,0.384,0.057,0.743,0.099,1.062&#xD;&#xA;&#x9;&#x9;l0.146,1.139l0.164,1.27l1.16,8.945l2.149,16.601c0.193,1.52,1.715,2.756,3.383,2.756h46.211c1.665,0,3.184-1.236,3.38-2.756&#xD;&#xA;&#x9;&#x9;l0.321-2.526l1.79-14.074l1.136-8.945l0.113-0.886l0.268-2.123C116.155,76.878,116.155,74.399,115.962,72.879z M115.103,78.284&#xD;&#xA;&#x9;&#x9;l-0.282,2.236l-1.249,9.831l-0.916,7.212l-1.177,9.279c-0.143,1.082-1.296,2-2.524,2H62.744c-1.228,0-2.384-0.918-2.527-2&#xD;&#xA;&#x9;&#x9;l-2.134-16.491l-1.272-9.837l-0.211-1.627c-0.009-0.08-0.021-0.16-0.03-0.246v-0.003c-0.018-0.176-0.033-0.36-0.047-0.554&#xD;&#xA;&#x9;&#x9;c-0.015-0.192-0.027-0.398-0.036-0.605v-0.024c-0.009-0.175-0.015-0.356-0.018-0.538c-0.015-0.615-0.012-1.252,0.012-1.849&#xD;&#xA;&#x9;&#x9;c0.006-0.14,0.012-0.276,0.021-0.41c0.003-0.087,0.009-0.17,0.015-0.253c0.018-0.295,0.045-0.568,0.075-0.812l0.416-3.333&#xD;&#xA;&#x9;&#x9;L58.288,60l0.012-0.106l0.612-4.905l1.317-10.554c0.003-0.039,0.009-0.077,0.015-0.113c0-0.003,0-0.003,0.003-0.006&#xD;&#xA;&#x9;&#x9;c0.003-0.023,0.009-0.048,0.015-0.071c0.009-0.036,0.018-0.068,0.03-0.104c0.3-0.978,1.353-1.706,2.453-1.706h46.211&#xD;&#xA;&#x9;&#x9;c1.1,0,2.149,0.729,2.449,1.694c0.015,0.048,0.027,0.093,0.036,0.14c0.006,0.018,0.012,0.036,0.012,0.054&#xD;&#xA;&#x9;&#x9;c0.012,0.042,0.021,0.083,0.027,0.125l1.341,10.542l0.621,4.905L113.456,60l0.143,1.143l1.156,9.117l0.348,2.729&#xD;&#xA;&#x9;&#x9;C115.287,74.425,115.287,76.854,115.103,78.284z"/>
  <linearGradient id="SVGID_28_" gradientUnits="userSpaceOnUse" x1="85.8501" y1="42.4341" x2="85.8501" y2="108.8423">
    <stop offset="0" style="stop-color:#FFFFFF;stop-opacity:0.1"/>
    <stop offset="0.0475" style="stop-color:#EAEAEA;stop-opacity:0.1"/>
    <stop offset="0.1999" style="stop-color:#ADADAD;stop-opacity:0.1"/>
    <stop offset="0.3512" style="stop-color:#787878;stop-opacity:0.1"/>
    <stop offset="0.4978" style="stop-color:#4D4D4D;stop-opacity:0.1"/>
    <stop offset="0.6387" style="stop-color:#2C2C2C;stop-opacity:0.1"/>
    <stop offset="0.7725" style="stop-color:#131313;stop-opacity:0.1"/>
    <stop offset="0.8961" style="stop-color:#050505;stop-opacity:0.1"/>
    <stop offset="1" style="stop-color:#000000;stop-opacity:0.1"/>
  </linearGradient>
  <path fill="url(#SVGID_28_)" d="M115.103,72.99l-0.348-2.729l-1.156-9.117L113.456,60l-0.015-0.106l-0.621-4.905l-1.341-10.542&#xD;&#xA;&#x9;&#x9;c-0.006-0.042-0.015-0.083-0.027-0.125c0-0.018-0.006-0.036-0.012-0.054c-0.009-0.047-0.021-0.092-0.036-0.14&#xD;&#xA;&#x9;&#x9;c-0.3-0.966-1.35-1.694-2.449-1.694H62.744c-1.1,0-2.152,0.729-2.453,1.706c-0.012,0.036-0.021,0.068-0.03,0.104&#xD;&#xA;&#x9;&#x9;c-0.006,0.023-0.012,0.048-0.015,0.071c-0.003,0.003-0.003,0.003-0.003,0.006c-0.006,0.036-0.012,0.074-0.015,0.113l-1.317,10.554&#xD;&#xA;&#x9;&#x9;L58.3,59.894L58.288,60l-1.282,10.26l-0.416,3.333c-0.03,0.243-0.057,0.517-0.075,0.812c-0.006,0.083-0.012,0.166-0.015,0.253&#xD;&#xA;&#x9;&#x9;c-0.009,0.134-0.015,0.271-0.021,0.41c-0.024,0.597-0.027,1.233-0.012,1.849c0.003,0.182,0.012,0.363,0.018,0.538v0.024&#xD;&#xA;&#x9;&#x9;c0.012,0.207,0.021,0.41,0.036,0.605c0.015,0.193,0.03,0.378,0.047,0.554v0.003c0.009,0.086,0.021,0.166,0.03,0.246l0.211,1.627&#xD;&#xA;&#x9;&#x9;l1.272,9.837l2.134,16.491c0.143,1.082,1.3,2,2.527,2h46.211c1.228,0,2.381-0.918,2.524-2l1.177-9.279l0.916-7.212l1.249-9.831&#xD;&#xA;&#x9;&#x9;l0.282-2.236C115.287,76.854,115.287,74.425,115.103,72.99z M60.086,79.079c-1.465,0-2.658-1.193-2.658-2.658&#xD;&#xA;&#x9;&#x9;c0-1.469,1.192-2.658,2.658-2.658c1.468,0,2.658,1.189,2.658,2.658C62.744,77.885,61.555,79.079,60.086,79.079z M108.232,105.076&#xD;&#xA;&#x9;&#x9;c0,0.455-0.169,0.88-0.464,1.216c-0.393,0.464-1.008,0.768-1.7,0.768H65.916c-0.559,0-1.073-0.193-1.454-0.523&#xD;&#xA;&#x9;&#x9;c-0.437-0.359-0.71-0.883-0.71-1.46v-59.22c0-0.547,0.247-1.05,0.645-1.409c0.047-0.045,0.098-0.086,0.149-0.125&#xD;&#xA;&#x9;&#x9;c0.375-0.282,0.853-0.448,1.37-0.448h40.152c0.517,0,0.996,0.169,1.367,0.448c0.128,0.099,0.244,0.208,0.342,0.327&#xD;&#xA;&#x9;&#x9;c0.286,0.333,0.455,0.752,0.455,1.207V105.076z M111.762,79.079c-1.466,0-2.658-1.193-2.658-2.658c0-1.469,1.192-2.658,2.658-2.658&#xD;&#xA;&#x9;&#x9;c1.468,0,2.657,1.189,2.657,2.658C114.419,77.885,113.23,79.079,111.762,79.079z"/>
  <g>
    <linearGradient id="SVGID_29_" gradientUnits="userSpaceOnUse" x1="67.792" y1="44.4468" x2="67.792" y2="106.5356">
      <stop offset="0" style="stop-color:#000000;stop-opacity:0.25"/>
      <stop offset="1" style="stop-color:#000000;stop-opacity:0.2"/>
    </linearGradient>
    <path fill="url(#SVGID_29_)" d="M71.832,61.702c0,0.65-0.484,3.921-1.23,8.559c-0.479,2.967-1.062,6.499-1.694,10.26&#xD;&#xA;&#x9;&#x9;&#x9;c-0.048,0.294-0.099,0.588-0.149,0.886c-0.488,2.91-1.001,5.942-1.513,8.945c-1.002,5.88-1.995,11.651-2.783,16.185&#xD;&#xA;&#x9;&#x9;&#x9;c-0.437-0.359-0.71-0.883-0.71-1.46v-59.22c0-0.547,0.247-1.05,0.645-1.409c1.513,3.065,3.469,7.108,4.995,10.542&#xD;&#xA;&#x9;&#x9;&#x9;c0.85,1.914,1.566,3.639,1.998,4.905c0.151,0.439,0.271,0.826,0.342,1.142C71.797,61.312,71.832,61.538,71.832,61.702z"/>
    <linearGradient id="SVGID_30_" gradientUnits="userSpaceOnUse" x1="104.3379" y1="44.6489" x2="104.3379" y2="106.2915">
      <stop offset="0" style="stop-color:#000000;stop-opacity:0.25"/>
      <stop offset="1" style="stop-color:#000000;stop-opacity:0.2"/>
    </linearGradient>
    <path fill="url(#SVGID_30_)" d="M108.232,45.856v59.22c0,0.455-0.169,0.88-0.464,1.216c-0.704-4.055-1.569-9.067-2.452-14.252&#xD;&#xA;&#x9;&#x9;&#x9;c-0.096-0.547-0.188-1.094-0.283-1.644c-0.003-0.013-0.003-0.026-0.006-0.042c0,0,0,0-0.003-0.003&#xD;&#xA;&#x9;&#x9;&#x9;c-0.089-0.532-0.181-1.067-0.271-1.603c-0.187-1.1-0.374-2.199-0.559-3.294c-0.092-0.544-0.185-1.091-0.276-1.632&#xD;&#xA;&#x9;&#x9;&#x9;c-0.137-0.812-0.273-1.62-0.407-2.417c-0.051-0.298-0.099-0.592-0.148-0.886c-0.628-3.761-1.21-7.293-1.689-10.26&#xD;&#xA;&#x9;&#x9;&#x9;c-0.746-4.638-1.231-7.908-1.231-8.559c0-0.164,0.033-0.39,0.098-0.666c0.078-0.315,0.19-0.702,0.342-1.142&#xD;&#xA;&#x9;&#x9;&#x9;c0.434-1.267,1.15-2.991,2-4.905c0.395-0.889,0.817-1.819,1.254-2.762c0.244-0.526,0.491-1.053,0.74-1.582&#xD;&#xA;&#x9;&#x9;&#x9;c0.996-2.11,2.019-4.209,2.898-5.996C108.063,44.982,108.232,45.401,108.232,45.856z"/>
  </g>
  <g>
    <g>
      <linearGradient id="SVGID_31_" gradientUnits="userSpaceOnUse" x1="60.0864" y1="73.7622" x2="60.0864" y2="79.0786">
        <stop offset="0" style="stop-color:#FFFFFF;stop-opacity:0.1"/>
        <stop offset="0.0475" style="stop-color:#EAEAEA;stop-opacity:0.1"/>
        <stop offset="0.1999" style="stop-color:#ADADAD;stop-opacity:0.1"/>
        <stop offset="0.3512" style="stop-color:#787878;stop-opacity:0.1"/>
        <stop offset="0.4978" style="stop-color:#4D4D4D;stop-opacity:0.1"/>
        <stop offset="0.6387" style="stop-color:#2C2C2C;stop-opacity:0.1"/>
        <stop offset="0.7725" style="stop-color:#131313;stop-opacity:0.1"/>
        <stop offset="0.8961" style="stop-color:#050505;stop-opacity:0.1"/>
        <stop offset="1" style="stop-color:#000000;stop-opacity:0.1"/>
      </linearGradient>
      <path fill="url(#SVGID_31_)" d="M60.086,73.762c-1.465,0-2.658,1.189-2.658,2.658c0,1.465,1.192,2.658,2.658,2.658&#xD;&#xA;&#x9;&#x9;&#x9;&#x9;c1.468,0,2.658-1.193,2.658-2.658C62.744,74.952,61.555,73.762,60.086,73.762z M60.086,78.682c-1.249,0-2.262-1.01-2.262-2.262&#xD;&#xA;&#x9;&#x9;&#x9;&#x9;s1.014-2.269,2.262-2.269c1.251,0,2.262,1.017,2.262,2.269S61.338,78.682,60.086,78.682z"/>
    </g>
    <g>
      <linearGradient id="SVGID_32_" gradientUnits="userSpaceOnUse" x1="111.7612" y1="73.7622" x2="111.7612" y2="79.0786">
        <stop offset="0" style="stop-color:#FFFFFF;stop-opacity:0.1"/>
        <stop offset="0.0475" style="stop-color:#EAEAEA;stop-opacity:0.1"/>
        <stop offset="0.1999" style="stop-color:#ADADAD;stop-opacity:0.1"/>
        <stop offset="0.3512" style="stop-color:#787878;stop-opacity:0.1"/>
        <stop offset="0.4978" style="stop-color:#4D4D4D;stop-opacity:0.1"/>
        <stop offset="0.6387" style="stop-color:#2C2C2C;stop-opacity:0.1"/>
        <stop offset="0.7725" style="stop-color:#131313;stop-opacity:0.1"/>
        <stop offset="0.8961" style="stop-color:#050505;stop-opacity:0.1"/>
        <stop offset="1" style="stop-color:#000000;stop-opacity:0.1"/>
      </linearGradient>
      <path fill="url(#SVGID_32_)" d="M111.762,73.762c-1.466,0-2.658,1.189-2.658,2.658c0,1.465,1.192,2.658,2.658,2.658&#xD;&#xA;&#x9;&#x9;&#x9;&#x9;c1.468,0,2.657-1.193,2.657-2.658C114.419,74.952,113.23,73.762,111.762,73.762z M111.762,78.682&#xD;&#xA;&#x9;&#x9;&#x9;&#x9;c-1.249,0-2.263-1.01-2.263-2.262s1.014-2.269,2.263-2.269c1.251,0,2.262,1.017,2.262,2.269S113.013,78.682,111.762,78.682z"/>
    </g>
  </g>
  <g>
    <g>
      <linearGradient id="SVGID_33_" gradientUnits="userSpaceOnUse" x1="60.0864" y1="78.6821" x2="60.0864" y2="74.1519">
        <stop offset="0" style="stop-color:#FFFFFF;stop-opacity:0.05"/>
        <stop offset="1" style="stop-color:#000000;stop-opacity:0.1"/>
      </linearGradient>
      <path fill="url(#SVGID_33_)" d="M62.349,76.42c0,1.252-1.011,2.262-2.262,2.262c-1.249,0-2.262-1.01-2.262-2.262&#xD;&#xA;&#x9;&#x9;&#x9;&#x9;s1.014-2.269,2.262-2.269C61.338,74.152,62.349,75.168,62.349,76.42z"/>
    </g>
    <g>
      <linearGradient id="SVGID_34_" gradientUnits="userSpaceOnUse" x1="111.7612" y1="78.6821" x2="111.7612" y2="74.1519">
        <stop offset="0" style="stop-color:#FFFFFF;stop-opacity:0.05"/>
        <stop offset="1" style="stop-color:#000000;stop-opacity:0.1"/>
      </linearGradient>
      <path fill="url(#SVGID_34_)" d="M114.023,76.42c0,1.252-1.011,2.262-2.262,2.262c-1.249,0-2.263-1.01-2.263-2.262&#xD;&#xA;&#x9;&#x9;&#x9;&#x9;s1.014-2.269,2.263-2.269C113.013,74.152,114.023,75.168,114.023,76.42z"/>
    </g>
  </g>
  <rect x="181.97" y="25.102" fill="#CCCCCC" width="2.277" height="64.475"/>
  <path fill="#CCCCCC" d="M217.247,53.326v8.027c0,0.653-0.535,1.188-1.189,1.188h-31.811c0-2.009,0-8.243,0-10.404h31.811&#xD;&#xA;&#x9;&#x9;C216.711,52.137,217.247,52.672,217.247,53.326z"/>
  <linearGradient id="SVGID_35_" gradientUnits="userSpaceOnUse" x1="200.7466" y1="52.1372" x2="200.7466" y2="62.5415">
    <stop offset="0.0123" style="stop-color:#000000;stop-opacity:0.2"/>
    <stop offset="0.0736" style="stop-color:#000000;stop-opacity:0"/>
    <stop offset="0.1227" style="stop-color:#000000;stop-opacity:0.4"/>
    <stop offset="0.1634" style="stop-color:#393939;stop-opacity:0.4596"/>
    <stop offset="0.2177" style="stop-color:#7F7F7F;stop-opacity:0.5389"/>
    <stop offset="0.2666" style="stop-color:#B6B6B6;stop-opacity:0.6105"/>
    <stop offset="0.3085" style="stop-color:#DEDEDE;stop-opacity:0.6718"/>
    <stop offset="0.3417" style="stop-color:#F6F6F6;stop-opacity:0.7203"/>
    <stop offset="0.362" style="stop-color:#FFFFFF;stop-opacity:0.75"/>
    <stop offset="0.4042" style="stop-color:#F6F6F6;stop-opacity:0.75"/>
    <stop offset="0.473" style="stop-color:#DEDEDE;stop-opacity:0.75"/>
    <stop offset="0.56" style="stop-color:#B6B6B6;stop-opacity:0.75"/>
    <stop offset="0.6617" style="stop-color:#7F7F7F;stop-opacity:0.75"/>
    <stop offset="0.7743" style="stop-color:#393939;stop-opacity:0.75"/>
    <stop offset="0.8589" style="stop-color:#000000;stop-opacity:0.75"/>
    <stop offset="0.9325" style="stop-color:#000000;stop-opacity:0.45"/>
    <stop offset="0.9755" style="stop-color:#000000;stop-opacity:0.75"/>
  </linearGradient>
  <path fill="url(#SVGID_35_)" d="M217.247,53.326v8.027c0,0.653-0.535,1.188-1.189,1.188h-31.811c0-2.009,0-8.243,0-10.404h31.811&#xD;&#xA;&#x9;&#x9;C216.711,52.137,217.247,52.672,217.247,53.326z"/>
  <linearGradient id="SVGID_36_" gradientUnits="userSpaceOnUse" x1="184.2471" y1="57.3394" x2="217.2466" y2="57.3394">
    <stop offset="0" style="stop-color:#000000;stop-opacity:0.35"/>
    <stop offset="0.1227" style="stop-color:#000000;stop-opacity:0.2"/>
    <stop offset="0.1709" style="stop-color:#000000;stop-opacity:0.1882"/>
    <stop offset="0.9397" style="stop-color:#000000;stop-opacity:0"/>
    <stop offset="0.9978" style="stop-color:#000000;stop-opacity:0.2891"/>
    <stop offset="1" style="stop-color:#000000;stop-opacity:0.3"/>
  </linearGradient>
  <path fill="url(#SVGID_36_)" d="M217.247,53.326v8.027c0,0.653-0.535,1.188-1.189,1.188h-31.811c0-2.009,0-8.243,0-10.404h31.811&#xD;&#xA;&#x9;&#x9;C216.711,52.137,217.247,52.672,217.247,53.326z"/>
  <linearGradient id="SVGID_37_" gradientUnits="userSpaceOnUse" x1="183.1084" y1="25.1021" x2="183.1084" y2="89.5771">
    <stop offset="0.0123" style="stop-color:#000000;stop-opacity:0.2"/>
    <stop offset="0.0736" style="stop-color:#000000;stop-opacity:0"/>
    <stop offset="0.1227" style="stop-color:#000000;stop-opacity:0.4"/>
    <stop offset="0.1634" style="stop-color:#393939;stop-opacity:0.4596"/>
    <stop offset="0.2177" style="stop-color:#7F7F7F;stop-opacity:0.5389"/>
    <stop offset="0.2666" style="stop-color:#B6B6B6;stop-opacity:0.6105"/>
    <stop offset="0.3085" style="stop-color:#DEDEDE;stop-opacity:0.6718"/>
    <stop offset="0.3417" style="stop-color:#F6F6F6;stop-opacity:0.7203"/>
    <stop offset="0.362" style="stop-color:#FFFFFF;stop-opacity:0.75"/>
    <stop offset="0.4042" style="stop-color:#F6F6F6;stop-opacity:0.75"/>
    <stop offset="0.473" style="stop-color:#DEDEDE;stop-opacity:0.75"/>
    <stop offset="0.56" style="stop-color:#B6B6B6;stop-opacity:0.75"/>
    <stop offset="0.6617" style="stop-color:#7F7F7F;stop-opacity:0.75"/>
    <stop offset="0.7743" style="stop-color:#393939;stop-opacity:0.75"/>
    <stop offset="0.8589" style="stop-color:#000000;stop-opacity:0.75"/>
    <stop offset="0.9325" style="stop-color:#000000;stop-opacity:0.45"/>
    <stop offset="0.9755" style="stop-color:#000000;stop-opacity:0.75"/>
  </linearGradient>
  <rect x="181.97" y="25.102" fill="url(#SVGID_37_)" width="2.277" height="64.475"/>
  <g>
    <path fill="#CCCCCC" d="M40.597,19.975c0,1.469-1.922,2.66-4.291,2.66c-2.369,0-4.291-1.191-4.291-2.66&#xD;&#xA;&#x9;&#x9;&#x9;c0-0.425,0.161-0.83,0.449-1.188c-0.003,0.052-0.007,0.106-0.007,0.158c0,0.504,0.251,0.975,0.683,1.359&#xD;&#xA;&#x9;&#x9;&#x9;c0.697,0.621,1.854,1.026,3.165,1.026s2.468-0.405,3.165-1.026c0.433-0.385,0.683-0.855,0.683-1.359&#xD;&#xA;&#x9;&#x9;&#x9;c0-0.052-0.003-0.106-0.007-0.158C40.435,19.145,40.597,19.55,40.597,19.975z"/>
    <path fill="#CCCCCC" d="M40.147,18.788c-0.134-1.242-1.802-2.228-3.841-2.228c-2.039,0-3.708,0.985-3.841,2.228&#xD;&#xA;&#x9;&#x9;&#x9;c-0.003,0.052-0.007,0.106-0.007,0.158c0,0.504,0.251,0.975,0.683,1.359c0.697,0.621,1.854,1.026,3.165,1.026&#xD;&#xA;&#x9;&#x9;&#x9;s2.468-0.405,3.165-1.026c0.433-0.385,0.683-0.855,0.683-1.359C40.154,18.894,40.15,18.839,40.147,18.788z M39.285,19.237&#xD;&#xA;&#x9;&#x9;&#x9;c-0.295,0.851-1.517,1.49-2.979,1.49c-1.462,0-2.684-0.639-2.98-1.49c-0.044-0.127-0.068-0.261-0.068-0.398&#xD;&#xA;&#x9;&#x9;&#x9;c0-0.354,0.158-0.683,0.429-0.968l0.007-0.004c0.528-0.549,1.5-0.92,2.612-0.92c1.112,0,2.083,0.371,2.612,0.92l0.007,0.004&#xD;&#xA;&#x9;&#x9;&#x9;c0.271,0.285,0.429,0.614,0.429,0.968C39.354,18.977,39.33,19.11,39.285,19.237z"/>
    <path fill="#CCCCCC" d="M39.354,18.839c0,0.137-0.024,0.271-0.069,0.398c-0.47-0.734-1.627-1.252-2.979-1.252&#xD;&#xA;&#x9;&#x9;&#x9;c-1.353,0-2.509,0.518-2.98,1.252c-0.044-0.127-0.068-0.261-0.068-0.398c0-0.354,0.158-0.683,0.429-0.968l0.007-0.004&#xD;&#xA;&#x9;&#x9;&#x9;c0.528-0.549,1.5-0.92,2.612-0.92c1.112,0,2.083,0.371,2.612,0.92l0.007,0.004C39.196,18.156,39.354,18.486,39.354,18.839z"/>
    <path fill="#CCCCCC" d="M39.285,19.237c-0.295,0.851-1.517,1.49-2.979,1.49c-1.462,0-2.684-0.639-2.98-1.49&#xD;&#xA;&#x9;&#x9;&#x9;c0.471-0.734,1.627-1.252,2.98-1.252C37.658,17.985,38.815,18.503,39.285,19.237z"/>
  </g>
  <linearGradient id="SVGID_38_" gradientUnits="userSpaceOnUse" x1="32.0156" y1="20.7114" x2="40.5967" y2="20.7114">
    <stop offset="0" style="stop-color:#000000;stop-opacity:0.3"/>
    <stop offset="0.0099" style="stop-color:#272727;stop-opacity:0.2948"/>
    <stop offset="0.0242" style="stop-color:#595959;stop-opacity:0.2873"/>
    <stop offset="0.0392" style="stop-color:#868686;stop-opacity:0.2795"/>
    <stop offset="0.0546" style="stop-color:#ABABAB;stop-opacity:0.2714"/>
    <stop offset="0.0706" style="stop-color:#CACACA;stop-opacity:0.263"/>
    <stop offset="0.0873" style="stop-color:#E1E1E1;stop-opacity:0.2542"/>
    <stop offset="0.105" style="stop-color:#F2F2F2;stop-opacity:0.2449"/>
    <stop offset="0.1246" style="stop-color:#FCFCFC;stop-opacity:0.2347"/>
    <stop offset="0.1493" style="stop-color:#FFFFFF;stop-opacity:0.2217"/>
    <stop offset="0.4766" style="stop-color:#000000;stop-opacity:0.05"/>
    <stop offset="0.5087" style="stop-color:#0C0C0C;stop-opacity:0.0673"/>
    <stop offset="0.5664" style="stop-color:#2B2B2B;stop-opacity:0.0985"/>
    <stop offset="0.6429" style="stop-color:#5D5D5D;stop-opacity:0.1398"/>
    <stop offset="0.7354" style="stop-color:#A3A3A3;stop-opacity:0.1898"/>
    <stop offset="0.8406" style="stop-color:#FBFBFB;stop-opacity:0.2466"/>
    <stop offset="0.8446" style="stop-color:#FFFFFF;stop-opacity:0.2488"/>
    <stop offset="1" style="stop-color:#000000;stop-opacity:0.3"/>
  </linearGradient>
  <path fill="url(#SVGID_38_)" d="M40.597,19.975c0,1.469-1.922,2.66-4.291,2.66c-2.369,0-4.291-1.191-4.291-2.66&#xD;&#xA;&#x9;&#x9;c0-0.425,0.161-0.83,0.449-1.188c-0.003,0.052-0.007,0.106-0.007,0.158c0,0.504,0.251,0.975,0.683,1.359&#xD;&#xA;&#x9;&#x9;c0.697,0.621,1.854,1.026,3.165,1.026s2.468-0.405,3.165-1.026c0.433-0.385,0.683-0.855,0.683-1.359&#xD;&#xA;&#x9;&#x9;c0-0.052-0.003-0.106-0.007-0.158C40.435,19.145,40.597,19.55,40.597,19.975z"/>
  <linearGradient id="SVGID_39_" gradientUnits="userSpaceOnUse" x1="36.3062" y1="16.5601" x2="36.3062" y2="21.3311">
    <stop offset="0" style="stop-color:#FFFFFF;stop-opacity:0.2"/>
    <stop offset="1" style="stop-color:#FFFFFF;stop-opacity:0.35"/>
  </linearGradient>
  <path fill="url(#SVGID_39_)" d="M40.147,18.788c-0.134-1.242-1.802-2.228-3.841-2.228c-2.039,0-3.708,0.985-3.841,2.228&#xD;&#xA;&#x9;&#x9;c-0.003,0.052-0.007,0.106-0.007,0.158c0,0.504,0.251,0.975,0.683,1.359c0.697,0.621,1.854,1.026,3.165,1.026&#xD;&#xA;&#x9;&#x9;s2.468-0.405,3.165-1.026c0.433-0.385,0.683-0.855,0.683-1.359C40.154,18.894,40.15,18.839,40.147,18.788z M39.285,19.237&#xD;&#xA;&#x9;&#x9;c-0.295,0.851-1.517,1.49-2.979,1.49c-1.462,0-2.684-0.639-2.98-1.49c-0.044-0.127-0.068-0.261-0.068-0.398&#xD;&#xA;&#x9;&#x9;c0-0.354,0.158-0.683,0.429-0.968l0.007-0.004c0.528-0.549,1.5-0.92,2.612-0.92c1.112,0,2.083,0.371,2.612,0.92l0.007,0.004&#xD;&#xA;&#x9;&#x9;c0.271,0.285,0.429,0.614,0.429,0.968C39.354,18.977,39.33,19.11,39.285,19.237z"/>
  <linearGradient id="SVGID_40_" gradientUnits="userSpaceOnUse" x1="33.2578" y1="18.0923" x2="39.354" y2="18.0923">
    <stop offset="0" style="stop-color:#000000;stop-opacity:0.3"/>
    <stop offset="0.4962" style="stop-color:#000000;stop-opacity:0.15"/>
    <stop offset="1" style="stop-color:#000000;stop-opacity:0.3"/>
  </linearGradient>
  <path fill="url(#SVGID_40_)" d="M39.354,18.839c0,0.137-0.024,0.271-0.069,0.398c-0.47-0.734-1.627-1.252-2.979-1.252&#xD;&#xA;&#x9;&#x9;c-1.353,0-2.509,0.518-2.98,1.252c-0.044-0.127-0.068-0.261-0.068-0.398c0-0.354,0.158-0.683,0.429-0.968l0.007-0.004&#xD;&#xA;&#x9;&#x9;c0.528-0.549,1.5-0.92,2.612-0.92c1.112,0,2.083,0.371,2.612,0.92l0.007,0.004C39.196,18.156,39.354,18.486,39.354,18.839z"/>
  <linearGradient id="SVGID_41_" gradientUnits="userSpaceOnUse" x1="36.3057" y1="17.9849" x2="36.3057" y2="20.7271">
    <stop offset="0" style="stop-color:#FFFFFF;stop-opacity:0.1"/>
    <stop offset="1" style="stop-color:#000000;stop-opacity:0.1"/>
  </linearGradient>
  <path fill="url(#SVGID_41_)" d="M39.285,19.237c-0.295,0.851-1.517,1.49-2.979,1.49c-1.462,0-2.684-0.639-2.98-1.49&#xD;&#xA;&#x9;&#x9;c0.471-0.734,1.627-1.252,2.98-1.252C37.658,17.985,38.815,18.503,39.285,19.237z"/>
  <g>
    <path fill="#CCCCCC" d="M174.319,53.576c-2.135,0-3.865,1.73-3.865,3.864c0,2.135,1.73,3.865,3.865,3.865s3.864-1.73,3.864-3.865&#xD;&#xA;&#x9;&#x9;&#x9;C178.184,55.306,176.454,53.576,174.319,53.576z M174.319,60.729c-1.816,0-3.288-1.472-3.288-3.289&#xD;&#xA;&#x9;&#x9;&#x9;c0-1.815,1.472-3.287,3.288-3.287c1.813,0,3.288,1.472,3.288,3.287C177.607,59.257,176.133,60.729,174.319,60.729z"/>
    <path fill="#CCCCCC" d="M174.319,54.153c-1.816,0-3.288,1.472-3.288,3.287c0,1.817,1.472,3.289,3.288,3.289&#xD;&#xA;&#x9;&#x9;&#x9;c1.813,0,3.288-1.472,3.288-3.289C177.607,55.625,176.133,54.153,174.319,54.153z M174.319,59.872&#xD;&#xA;&#x9;&#x9;&#x9;c-1.344,0-2.432-1.088-2.432-2.432c0-1.343,1.088-2.432,2.432-2.432s2.432,1.089,2.432,2.432&#xD;&#xA;&#x9;&#x9;&#x9;C176.751,58.784,175.663,59.872,174.319,59.872z"/>
    <circle fill="#CCCCCC" cx="174.319" cy="57.44" r="2.432"/>
  </g>
  <linearGradient id="SVGID_42_" gradientUnits="userSpaceOnUse" x1="174.3188" y1="53.5757" x2="174.3188" y2="61.3052">
    <stop offset="0.2187" style="stop-color:#FFFFFF;stop-opacity:0.35"/>
    <stop offset="0.2911" style="stop-color:#E3E3E3;stop-opacity:0.35"/>
    <stop offset="0.5555" style="stop-color:#838383;stop-opacity:0.35"/>
    <stop offset="0.7695" style="stop-color:#3D3D3D;stop-opacity:0.35"/>
    <stop offset="0.9226" style="stop-color:#111111;stop-opacity:0.35"/>
    <stop offset="1" style="stop-color:#000000;stop-opacity:0.35"/>
  </linearGradient>
  <path fill="url(#SVGID_42_)" d="M174.319,53.576c-2.135,0-3.865,1.73-3.865,3.864c0,2.135,1.73,3.865,3.865,3.865&#xD;&#xA;&#x9;&#x9;s3.864-1.73,3.864-3.865C178.184,55.306,176.454,53.576,174.319,53.576z M174.319,60.729c-1.816,0-3.288-1.472-3.288-3.289&#xD;&#xA;&#x9;&#x9;c0-1.815,1.472-3.287,3.288-3.287c1.813,0,3.288,1.472,3.288,3.287C177.607,59.257,176.133,60.729,174.319,60.729z"/>
  <linearGradient id="SVGID_43_" gradientUnits="userSpaceOnUse" x1="174.3188" y1="54.1528" x2="174.3188" y2="60.729">
    <stop offset="0" style="stop-color:#FFFFFF;stop-opacity:0.1"/>
    <stop offset="0.0927" style="stop-color:#E3E3E3;stop-opacity:0.1"/>
    <stop offset="0.4311" style="stop-color:#838383;stop-opacity:0.1"/>
    <stop offset="0.705" style="stop-color:#3D3D3D;stop-opacity:0.1"/>
    <stop offset="0.9009" style="stop-color:#111111;stop-opacity:0.1"/>
    <stop offset="1" style="stop-color:#000000;stop-opacity:0.1"/>
  </linearGradient>
  <path fill="url(#SVGID_43_)" d="M174.319,54.153c-1.816,0-3.288,1.472-3.288,3.287c0,1.817,1.472,3.289,3.288,3.289&#xD;&#xA;&#x9;&#x9;c1.813,0,3.288-1.472,3.288-3.289C177.607,55.625,176.133,54.153,174.319,54.153z M174.319,59.872&#xD;&#xA;&#x9;&#x9;c-1.344,0-2.432-1.088-2.432-2.432c0-1.343,1.088-2.432,2.432-2.432s2.432,1.089,2.432,2.432&#xD;&#xA;&#x9;&#x9;C176.751,58.784,175.663,59.872,174.319,59.872z"/>
  <linearGradient id="SVGID_44_" gradientUnits="userSpaceOnUse" x1="174.3193" y1="55.0083" x2="174.3193" y2="59.8716">
    <stop offset="0" style="stop-color:#FFFFFF;stop-opacity:0.05"/>
    <stop offset="0.0927" style="stop-color:#E3E3E3;stop-opacity:0.0639"/>
    <stop offset="0.4311" style="stop-color:#838383;stop-opacity:0.1147"/>
    <stop offset="0.705" style="stop-color:#3D3D3D;stop-opacity:0.1558"/>
    <stop offset="0.9009" style="stop-color:#111111;stop-opacity:0.1851"/>
    <stop offset="1" style="stop-color:#000000;stop-opacity:0.2"/>
  </linearGradient>
  <circle fill="url(#SVGID_44_)" cx="174.319" cy="57.44" r="2.432"/>
  <linearGradient id="SVGID_45_" gradientUnits="userSpaceOnUse" x1="171.8877" y1="56.438" x2="176.751" y2="56.438">
    <stop offset="0" style="stop-color:#000000;stop-opacity:0.45"/>
    <stop offset="1" style="stop-color:#000000;stop-opacity:0.45"/>
  </linearGradient>
  <path fill="url(#SVGID_45_)" d="M176.751,57.44c0,0.146-0.012,0.289-0.039,0.429c-0.202-1.139-1.194-2.004-2.393-2.004&#xD;&#xA;&#x9;&#x9;s-2.191,0.865-2.394,2.004c-0.026-0.14-0.038-0.282-0.038-0.429c0-1.343,1.088-2.432,2.432-2.432S176.751,56.097,176.751,57.44z"/>
  <linearGradient id="SVGID_46_" gradientUnits="userSpaceOnUse" x1="97.5928" y1="1" x2="97.5928" y2="90.3545">
    <stop offset="0" style="stop-color:#FFFFFF;stop-opacity:0.15"/>
    <stop offset="1" style="stop-color:#000000;stop-opacity:0.25"/>
  </linearGradient>
  <path fill="url(#SVGID_46_)" d="M56.988,56.621c0,0.821,0,0.821,0,1.636c0,0.077-0.035,0.145-0.104,0.211&#xD;&#xA;&#x9;&#x9;c-0.024,0.021-0.048,0.041-0.077,0.063c-0.016,0.008-0.03,0.018-0.045,0.029c-0.033,0.018-0.068,0.035-0.104,0.057&#xD;&#xA;&#x9;&#x9;c-0.47,0.229-1.359,0.375-2.17,0.538c-0.065,0.012-0.128,0.023-0.193,0.038c-0.08,0.016-0.157,0.033-0.234,0.051&#xD;&#xA;&#x9;&#x9;c-0.152,0.033-0.298,0.068-0.435,0.107c-0.101,0.026-0.196,0.057-0.285,0.089c-0.044,0.015-0.086,0.029-0.125,0.048&#xD;&#xA;&#x9;&#x9;c-0.038,0.015-0.074,0.033-0.11,0.051c-0.095,0.044-0.172,0.095-0.226,0.148c-0.068,0.063-0.104,0.131-0.104,0.205v-4.902&#xD;&#xA;&#x9;&#x9;c0,0.074,0.038,0.146,0.104,0.208c0.024,0.021,0.048,0.042,0.077,0.063c0.015,0.009,0.03,0.018,0.045,0.029&#xD;&#xA;&#x9;&#x9;c0.033,0.019,0.068,0.036,0.104,0.057c0.47,0.229,1.359,0.375,2.167,0.538c0.065,0.012,0.131,0.023,0.193,0.039&#xD;&#xA;&#x9;&#x9;c0.125,0.026,0.25,0.053,0.366,0.08c0.06,0.015,0.116,0.026,0.173,0.041c0.056,0.016,0.113,0.03,0.163,0.045&#xD;&#xA;&#x9;&#x9;c0.057,0.016,0.11,0.033,0.164,0.051c0.056,0.015,0.107,0.032,0.155,0.054c0.021,0.006,0.042,0.015,0.06,0.023&#xD;&#xA;&#x9;&#x9;c0.146,0.06,0.262,0.125,0.339,0.199C56.953,56.478,56.988,56.546,56.988,56.621z M56.947,44.39&#xD;&#xA;&#x9;&#x9;c-0.006-0.009-0.018-0.018-0.033-0.023c-0.047-0.027-0.119-0.042-0.205-0.045h-0.157c-0.425,0.018-1.103,0.163-1.766,0.3&#xD;&#xA;&#x9;&#x9;c-0.146,0.03-0.289,0.06-0.431,0.09c-0.3,0.06-0.586,0.113-0.829,0.143c-0.021,0.003-0.042,0.006-0.063,0.006&#xD;&#xA;&#x9;&#x9;c-0.021,0.003-0.042,0.006-0.063,0.009c-0.03,0.003-0.06,0.003-0.089,0.006c-0.012,0-0.021,0.003-0.03,0.003h-0.035&#xD;&#xA;&#x9;&#x9;c-0.057,0.004-0.107,0.004-0.155,0c-0.021,0-0.041,0-0.059-0.003c-0.015-0.003-0.03-0.003-0.042-0.006&#xD;&#xA;&#x9;&#x9;c-0.03-0.003-0.06-0.009-0.083-0.018c-0.006-0.003-0.012-0.003-0.018-0.006c-0.009-0.003-0.015-0.006-0.023-0.012&#xD;&#xA;&#x9;&#x9;c-0.015-0.007-0.03-0.015-0.039-0.024c-0.009-0.009-0.018-0.015-0.023-0.023c-0.018-0.021-0.026-0.045-0.026-0.074v3.374&#xD;&#xA;&#x9;&#x9;c0-0.071,0.05-0.148,0.14-0.226c0.026-0.027,0.053-0.048,0.086-0.071c0.065-0.048,0.14-0.096,0.226-0.144&#xD;&#xA;&#x9;&#x9;c0.042-0.026,0.087-0.05,0.134-0.074c0.047-0.023,0.095-0.05,0.149-0.074c0.077-0.038,0.157-0.077,0.24-0.112&#xD;&#xA;&#x9;&#x9;c0.226-0.104,0.479-0.205,0.737-0.31c0.229-0.092,0.461-0.182,0.69-0.273c0.324-0.131,0.642-0.259,0.916-0.384&#xD;&#xA;&#x9;&#x9;c0.057-0.026,0.11-0.05,0.161-0.074c0.05-0.023,0.101-0.05,0.149-0.074c0.354-0.182,0.585-0.351,0.585-0.503&#xD;&#xA;&#x9;&#x9;c0-0.642,0-0.642,0-1.287C56.988,44.444,56.974,44.415,56.947,44.39z M56.267,68.245c-0.054-0.026-0.113-0.053-0.173-0.08&#xD;&#xA;&#x9;&#x9;c-0.054-0.023-0.11-0.051-0.169-0.074c-0.767-0.336-1.784-0.692-2.453-1.022c-0.036-0.019-0.068-0.036-0.101-0.054&#xD;&#xA;&#x9;&#x9;c-0.003,0-0.006,0-0.009-0.003c-0.03-0.015-0.06-0.03-0.086-0.048c-0.095-0.051-0.182-0.104-0.253-0.154&#xD;&#xA;&#x9;&#x9;c-0.065-0.045-0.119-0.09-0.157-0.134c-0.03-0.032-0.051-0.063-0.065-0.093c-0.009-0.015-0.015-0.029-0.018-0.044&#xD;&#xA;&#x9;&#x9;c-0.003-0.015-0.006-0.027-0.006-0.042v3.377c0-0.148,0.211-0.188,0.538-0.163c0.112,0.006,0.24,0.021,0.374,0.042&#xD;&#xA;&#x9;&#x9;c0.137,0.021,0.283,0.044,0.434,0.074c0.078,0.012,0.155,0.026,0.232,0.044c0.158,0.03,0.318,0.063,0.481,0.099&#xD;&#xA;&#x9;&#x9;c0.161,0.035,0.324,0.068,0.482,0.101c0.08,0.019,0.161,0.033,0.235,0.048c0.154,0.029,0.306,0.057,0.446,0.08&#xD;&#xA;&#x9;&#x9;c0.047,0.009,0.095,0.016,0.143,0.021l0.237-1.918C56.344,68.284,56.305,68.262,56.267,68.245z M55.743,78.998&#xD;&#xA;&#x9;&#x9;c-0.042-0.318-0.074-0.678-0.099-1.062c-0.154-0.106-0.315-0.217-0.476-0.33c-0.083-0.057-0.163-0.109-0.246-0.169&#xD;&#xA;&#x9;&#x9;c-0.342-0.231-0.687-0.47-0.996-0.692c-0.06-0.042-0.119-0.087-0.176-0.128c-0.229-0.17-0.434-0.327-0.595-0.476&#xD;&#xA;&#x9;&#x9;c-0.056-0.048-0.109-0.099-0.154-0.143c-0.125-0.125-0.202-0.235-0.22-0.321c-0.006-0.015-0.006-0.026-0.006-0.039v3.16&#xD;&#xA;&#x9;&#x9;c0.002-0.08,0.068-0.106,0.187-0.089c0.024,0.003,0.047,0.006,0.074,0.015c0.003,0,0.009,0,0.012,0.003&#xD;&#xA;&#x9;&#x9;c0.023,0.006,0.047,0.012,0.074,0.021c0.092,0.029,0.199,0.071,0.318,0.121c0.039,0.018,0.081,0.036,0.122,0.054&#xD;&#xA;&#x9;&#x9;c0.063,0.03,0.128,0.063,0.196,0.092c0.096,0.048,0.193,0.099,0.298,0.152c0.104,0.054,0.208,0.11,0.318,0.166&#xD;&#xA;&#x9;&#x9;c0.068,0.036,0.137,0.071,0.205,0.11c0.446,0.237,0.907,0.49,1.308,0.692L55.743,78.998z M52.776,84.125v3.151&#xD;&#xA;&#x9;&#x9;c0-0.059,0.038-0.077,0.106-0.056c0.021,0.002,0.042,0.012,0.063,0.023c0.045,0.021,0.098,0.051,0.161,0.089&#xD;&#xA;&#x9;&#x9;c0.03,0.019,0.063,0.039,0.095,0.063c0.375,0.256,0.945,0.743,1.534,1.252c0.11,0.095,0.22,0.19,0.327,0.282&#xD;&#xA;&#x9;&#x9;c0.146,0.125,0.291,0.25,0.431,0.371c0.134,0.113,0.262,0.224,0.384,0.324c0.077,0.065,0.154,0.128,0.226,0.188&#xD;&#xA;&#x9;&#x9;c0.024,0.015,0.045,0.033,0.065,0.051c0.045,0.035,0.089,0.071,0.134,0.104c0.262,0.203,0.467,0.342,0.583,0.378&#xD;&#xA;&#x9;&#x9;c0.021,0.006,0.035,0.009,0.05,0.009c0.009,0,0.018,0,0.024-0.003h-0.024c0.018,0,0.033-0.006,0.039-0.015&#xD;&#xA;&#x9;&#x9;c0.012-0.009,0.015-0.023,0.015-0.042c0-0.618,0-0.618,0-1.239C56.988,88.437,52.776,84.762,52.776,84.125z M138.31,33.17&#xD;&#xA;&#x9;&#x9;c-0.073,0-0.114,0.027-0.114,0.089c0,0.633,0,0.633,0,1.263c0,0.633,4.214,2.879,4.214,3.53v-3.161&#xD;&#xA;&#x9;&#x9;C142.409,35.482,138.985,33.17,138.31,33.17z M138.251,22.743c-0.037,0-0.056,0.018-0.056,0.061c0,0.617,0,0.617,0,1.238&#xD;&#xA;&#x9;&#x9;c0,0.618,4.214,4.292,4.214,4.927v-3.148C142.409,26.415,138.746,22.743,138.251,22.743z M139.733,14.662&#xD;&#xA;&#x9;&#x9;c-0.734-0.914-1.368-1.675-1.509-1.675c-0.019,0-0.029,0.012-0.029,0.043c0,0.602,0,0.602,0,1.204c0,0.076,0.065,0.223,0.18,0.428&#xD;&#xA;&#x9;&#x9;c0.808,1.424,4.034,5.542,4.034,6.085V17.7C142.409,18.067,140.938,16.16,139.733,14.662z M140.969,9.979&#xD;&#xA;&#x9;&#x9;c-0.57-1.009-1.213-2.17-1.735-3.087c-0.533-0.933-0.942-1.608-1.023-1.608c-0.011,0-0.016,0.01-0.016,0.031&#xD;&#xA;&#x9;&#x9;c0,0.581,0,0.581,0,1.162c0,0.064,0.052,0.208,0.146,0.416c0.28,0.623,0.934,1.815,1.637,3.087&#xD;&#xA;&#x9;&#x9;c0.577,1.042,1.189,2.134,1.653,3.008c0.461,0.865,0.778,1.51,0.778,1.675v-2.406C142.409,12.492,141.759,11.382,140.969,9.979z&#xD;&#xA;&#x9;&#x9; M141.903,7.486c-0.205-0.351-0.461-0.805-0.742-1.311C139.971,4.039,138.339,1,138.204,1c-0.005,0-0.009,0.004-0.009,0.017&#xD;&#xA;&#x9;&#x9;c0,0.454,0,0.454,0,0.905c0,0.235,1.135,2.276,2.227,4.253c0.248,0.446,0.493,0.892,0.722,1.311&#xD;&#xA;&#x9;&#x9;c0.708,1.294,1.265,2.348,1.265,2.518V8.211C142.409,8.311,142.211,8.012,141.903,7.486z M52.776,34.891v3.161&#xD;&#xA;&#x9;&#x9;c0-0.651,4.213-2.897,4.213-3.53c0-0.63,0-0.63,0-1.263c0-0.062-0.042-0.089-0.115-0.089C56.2,33.17,52.776,35.482,52.776,34.891z&#xD;&#xA;&#x9;&#x9; M52.776,25.821v3.148c0-0.636,4.213-4.31,4.213-4.927c0-0.621,0-0.621,0-1.238c0-0.043-0.019-0.061-0.055-0.061&#xD;&#xA;&#x9;&#x9;C56.438,22.743,52.776,26.415,52.776,25.821z M52.776,17.7v3.048c0-0.544,3.226-4.661,4.033-6.085&#xD;&#xA;&#x9;&#x9;c0.114-0.205,0.18-0.352,0.18-0.428c0-0.602,0-0.602,0-1.204c0-0.031-0.01-0.043-0.029-0.043c-0.141,0-0.775,0.761-1.509,1.675&#xD;&#xA;&#x9;&#x9;C54.247,16.16,52.776,18.067,52.776,17.7z M52.776,12.256v2.406c0-0.165,0.316-0.81,0.778-1.675&#xD;&#xA;&#x9;&#x9;c0.464-0.874,1.076-1.965,1.653-3.008c0.703-1.271,1.356-2.464,1.637-3.087c0.093-0.208,0.146-0.352,0.146-0.416&#xD;&#xA;&#x9;&#x9;c0-0.581,0-0.581,0-1.162c0-0.021-0.005-0.031-0.015-0.031c-0.082,0-0.49,0.676-1.024,1.608c-0.521,0.917-1.164,2.078-1.734,3.087&#xD;&#xA;&#x9;&#x9;C53.426,11.382,52.776,12.492,52.776,12.256z M52.776,8.211v1.792c0-0.17,0.556-1.224,1.265-2.518&#xD;&#xA;&#x9;&#x9;c0.229-0.419,0.475-0.865,0.722-1.311c1.092-1.977,2.227-4.018,2.227-4.253c0-0.451,0-0.451,0-0.905C56.99,1.004,56.986,1,56.981,1&#xD;&#xA;&#x9;&#x9;c-0.135,0-1.767,3.039-2.958,5.175c-0.281,0.506-0.537,0.96-0.741,1.311C52.974,8.012,52.776,8.311,52.776,8.211z M138.195,56.622&#xD;&#xA;&#x9;&#x9;c0,0.818,0,0.818,0,1.635c0,0.82,4.214,0.82,4.214,1.636v-4.905C142.409,55.805,138.195,55.805,138.195,56.622z M138.634,44.321&#xD;&#xA;&#x9;&#x9;h-0.158c-0.177,0.01-0.28,0.058-0.28,0.158c0,0.646,0,0.646,0,1.287c0,0.643,4.214,1.657,4.214,2.32v-3.377&#xD;&#xA;&#x9;&#x9;C142.409,45.241,139.711,44.364,138.634,44.321z M142.409,69.875v-3.378c0,0.664-4.214,1.678-4.214,2.32c0,0.642,0,0.642,0,1.287&#xD;&#xA;&#x9;&#x9;c0,0.101,0.104,0.148,0.28,0.158h0.158C139.711,70.219,142.409,69.342,142.409,69.875z M142.409,78.8v-3.161&#xD;&#xA;&#x9;&#x9;c0,0.651-4.214,2.898-4.214,3.531c0,0.629,0,0.629,0,1.262c0,0.062,0.042,0.089,0.114,0.089&#xD;&#xA;&#x9;&#x9;C138.985,80.521,142.409,78.209,142.409,78.8z M142.409,87.276v-3.148c0,0.636-4.214,4.311-4.214,4.928c0,0.621,0,0.621,0,1.238&#xD;&#xA;&#x9;&#x9;c0,0.042,0.019,0.061,0.056,0.061C138.746,90.354,142.409,86.682,142.409,87.276z"/>
  <linearGradient id="SVGID_47_" gradientUnits="userSpaceOnUse" x1="97.5928" y1="87.2124" x2="97.5928" y2="117.4341">
    <stop offset="0" style="stop-color:#000000;stop-opacity:0.2"/>
    <stop offset="0.8145" style="stop-color:#000000;stop-opacity:0.25"/>
    <stop offset="0.8205" style="stop-color:#FFFFFF;stop-opacity:0.1"/>
    <stop offset="0.8311" style="stop-color:#FFFFFF;stop-opacity:0.35"/>
    <stop offset="0.8763" style="stop-color:#FFFFFF;stop-opacity:0.1"/>
    <stop offset="0.9593" style="stop-color:#000000;stop-opacity:0.1"/>
    <stop offset="0.9819" style="stop-color:#000000;stop-opacity:0.25"/>
    <stop offset="1" style="stop-color:#000000;stop-opacity:0.45"/>
  </linearGradient>
  <path fill="url(#SVGID_47_)" d="M142.409,87.277v30.157H52.776V87.277c0-0.059,0.038-0.077,0.106-0.056&#xD;&#xA;&#x9;&#x9;c0.021,0.002,0.042,0.012,0.063,0.023c0.045,0.021,0.098,0.051,0.161,0.089c0.03,0.019,0.063,0.039,0.095,0.063&#xD;&#xA;&#x9;&#x9;c0.375,0.256,0.945,0.743,1.534,1.252c0.11,0.095,0.22,0.19,0.327,0.282c0.146,0.128,0.291,0.253,0.431,0.371&#xD;&#xA;&#x9;&#x9;c0.134,0.113,0.262,0.224,0.384,0.324c0.077,0.065,0.154,0.128,0.226,0.188c0.024,0.015,0.045,0.033,0.065,0.051&#xD;&#xA;&#x9;&#x9;c0.048,0.039,0.092,0.074,0.134,0.104c0.262,0.203,0.467,0.342,0.583,0.378c0.021,0.006,0.035,0.009,0.05,0.009&#xD;&#xA;&#x9;&#x9;c0.009,0,0.018,0,0.024-0.003h0.253l2.149,16.601c0.193,1.52,1.715,2.756,3.383,2.756h19.785v2.227h30.127v-7.509l1.79-14.074&#xD;&#xA;&#x9;&#x9;h23.78c0.006,0.003,0.015,0.003,0.024,0.003c0.101,0,0.33-0.151,0.633-0.387c0.042-0.029,0.086-0.064,0.134-0.104&#xD;&#xA;&#x9;&#x9;c0.021-0.018,0.042-0.036,0.065-0.051c0.071-0.06,0.149-0.122,0.226-0.188c0.351-0.291,0.75-0.639,1.142-0.978&#xD;&#xA;&#x9;&#x9;C141.452,87.783,142.409,86.974,142.409,87.277z"/>
  <g>
    <linearGradient id="SVGID_48_" gradientUnits="userSpaceOnUse" x1="157.8096" y1="76.9692" x2="157.8096" y2="96.0181">
      <stop offset="0.006" style="stop-color:#FFFFFF;stop-opacity:0.15"/>
      <stop offset="0.0754" style="stop-color:#FFFFFF;stop-opacity:0"/>
      <stop offset="0.9231" style="stop-color:#000000;stop-opacity:0"/>
      <stop offset="1" style="stop-color:#000000;stop-opacity:0.25"/>
    </linearGradient>
    <rect x="144.588" y="76.969" fill="url(#SVGID_48_)" width="26.443" height="19.049"/>
    <linearGradient id="SVGID_49_" gradientUnits="userSpaceOnUse" x1="157.8096" y1="18.2959" x2="157.8096" y2="37.3457">
      <stop offset="0.006" style="stop-color:#FFFFFF;stop-opacity:0.15"/>
      <stop offset="0.0754" style="stop-color:#FFFFFF;stop-opacity:0"/>
      <stop offset="0.9231" style="stop-color:#000000;stop-opacity:0"/>
      <stop offset="1" style="stop-color:#000000;stop-opacity:0.25"/>
    </linearGradient>
    <rect x="144.588" y="18.296" fill="url(#SVGID_49_)" width="26.443" height="19.049"/>
  </g>
  <g>
    <linearGradient id="SVGID_50_" gradientUnits="userSpaceOnUse" x1="144.5879" y1="86.4937" x2="171.0313" y2="86.4937">
      <stop offset="0.7376" style="stop-color:#000000;stop-opacity:0"/>
      <stop offset="1" style="stop-color:#000000;stop-opacity:0.1"/>
    </linearGradient>
    <rect x="144.588" y="76.969" fill="url(#SVGID_50_)" width="26.443" height="19.049"/>
    <linearGradient id="SVGID_51_" gradientUnits="userSpaceOnUse" x1="144.5879" y1="27.8208" x2="171.0313" y2="27.8208">
      <stop offset="0.7376" style="stop-color:#000000;stop-opacity:0"/>
      <stop offset="1" style="stop-color:#000000;stop-opacity:0.1"/>
    </linearGradient>
    <rect x="144.588" y="18.296" fill="url(#SVGID_51_)" width="26.443" height="19.049"/>
  </g>
  <path fill="#4D4D4D" d="M56.421,90.057h-0.042v-0.03C56.394,90.04,56.409,90.047,56.421,90.057z"/>
  <path fill="#4D4D4D" d="M56.142,70.219h-0.143l-0.05-0.03c0.018,0.003,0.032,0.006,0.05,0.009&#xD;&#xA;&#x9;&#x9;C56.046,70.207,56.094,70.213,56.142,70.219z"/>
  <linearGradient id="SVGID_52_" gradientUnits="userSpaceOnUse" x1="97.5972" y1="34.9897" x2="97.5972" y2="117.4341">
    <stop offset="0" style="stop-color:#000000;stop-opacity:0.1"/>
    <stop offset="1" style="stop-color:#000000;stop-opacity:0.45"/>
  </linearGradient>
  <path fill="url(#SVGID_52_)" d="M142.409,38.504c0,0.692-3.684,2.378-3.684,2.378H56.459c0,0-3.683-1.686-3.683-2.378l0.032-0.565&#xD;&#xA;&#x9;&#x9;c0.318-0.624,2.887-2.099,3.832-2.949h81.903c0.945,0.851,3.514,2.325,3.832,2.949L142.409,38.504z M142.418,48.709&#xD;&#xA;&#x9;&#x9;c0-0.493,0-0.624,0-0.624l-0.273-0.333h-0.003c-0.708-0.481-2.596-1.062-3.473-1.549h-25.534c-0.148-0.08-0.297-1.605,0-1.882&#xD;&#xA;&#x9;&#x9;h-0.791c0,0.003,0,0.003,0,0.006l0.238,1.876l0.684,5.381l0.431,3.404l0.437,3.434l0.188,1.472l0.143,1.142l0.324,2.539&#xD;&#xA;&#x9;&#x9;l0.844,6.645l0.006,0.041l0.333,2.619c0.078,0.625,0.128,1.415,0.14,2.232c0.021,1.166-0.026,2.394-0.14,3.285l-0.229,1.826&#xD;&#xA;&#x9;&#x9;l-0.039,0.297l-0.113,0.886l-0.645,5.087l-0.452,3.564l-0.038,0.294l-1.472,11.583l-0.318,2.491l-0.321,2.526&#xD;&#xA;&#x9;&#x9;c-0.196,1.52-1.715,2.756-3.38,2.756H62.753c-1.667,0-3.189-1.236-3.383-2.756l-0.651-5.021l-1.498-11.579l-0.039-0.294&#xD;&#xA;&#x9;&#x9;l-0.476-3.684l-0.645-4.968l-0.164-1.27l-0.023-0.175v-0.004l-0.122-0.96c-0.042-0.318-0.074-0.678-0.098-1.062&#xD;&#xA;&#x9;&#x9;c-0.065-1.02-0.068-2.211-0.015-3.249v-0.003c0.024-0.438,0.06-0.842,0.104-1.198l0.407-3.267h-0.143l-0.051-0.03&#xD;&#xA;&#x9;&#x9;c0.018,0.003,0.033,0.006,0.051,0.009c0.047,0.009,0.095,0.016,0.143,0.021l0.237-1.918l0.589-4.727l0.318-2.539l0.143-1.142&#xD;&#xA;&#x9;&#x9;l0.185-1.472l0.428-3.434l0.425-3.404l0.669-5.381l0.235-1.876c0-0.003,0-0.003,0-0.006h-0.895c0.297,0.276,0.148,1.802,0,1.882&#xD;&#xA;&#x9;&#x9;h-1.951c-0.039,0.023-0.08,0.045-0.122,0.065c-0.048,0.024-0.099,0.051-0.149,0.074c-0.05,0.024-0.104,0.048-0.161,0.074&#xD;&#xA;&#x9;&#x9;c-0.273,0.125-0.591,0.253-0.916,0.384c-0.229,0.092-0.46,0.182-0.69,0.273c-0.258,0.104-0.511,0.205-0.737,0.31&#xD;&#xA;&#x9;&#x9;c-0.083,0.035-0.163,0.074-0.24,0.112c-0.054,0.024-0.102,0.051-0.149,0.074c-0.047,0.024-0.092,0.048-0.134,0.074&#xD;&#xA;&#x9;&#x9;c-0.065,0.036-0.125,0.075-0.178,0.11l-0.273,0.33c0,0,0,0.131,0,0.624c0,0.497,3.053,2.875,3.112,2.875h0.577&#xD;&#xA;&#x9;&#x9;c-0.188,1.463-0.354,2.926-0.393,3.172c-0.077,0.494,1.35,1.041,1.355,1.437c0.006,0.38,0.048,1.769-0.06,2.229h-0.446&#xD;&#xA;&#x9;&#x9;c-0.009,0.015-0.024,0.029-0.039,0.045c-0.024,0.021-0.048,0.041-0.077,0.063c-0.015,0.008-0.03,0.018-0.045,0.029&#xD;&#xA;&#x9;&#x9;c-0.032,0.018-0.068,0.035-0.104,0.057c-0.47,0.229-1.359,0.375-2.17,0.538c-0.065,0.012-0.128,0.023-0.193,0.038&#xD;&#xA;&#x9;&#x9;c-0.081,0.016-0.158,0.033-0.235,0.051c-0.152,0.033-0.297,0.068-0.434,0.107c-0.101,0.026-0.196,0.057-0.286,0.089&#xD;&#xA;&#x9;&#x9;c-0.044,0.015-0.086,0.029-0.125,0.048c-0.038,0.015-0.074,0.033-0.109,0.051c-0.027,0.012-0.054,0.026-0.078,0.041l-0.252,0.313&#xD;&#xA;&#x9;&#x9;c0,0,0,0.514,0,0.909c0,0.256,1.293,1.332,2.212,2.066c-0.193,1.37-0.351,2.774-0.411,3.137c-0.116,0.743,0.838,1.561,0.83,1.87&#xD;&#xA;&#x9;&#x9;c-0.006,0.249-0.003,1.524,0,2.01c0,0.115,0,0.187,0,0.187l-1.053-0.199c-0.077-0.018-0.154-0.032-0.231-0.044&#xD;&#xA;&#x9;&#x9;c-0.152-0.03-0.297-0.054-0.434-0.074c-0.134-0.021-0.262-0.036-0.375-0.042c-0.327-0.024-0.538,0.015-0.538,0.163v1.234&#xD;&#xA;&#x9;&#x9;c0,0.104,0.386,0.615,0.895,1.242c-0.125,0.743-0.232,1.451-0.25,1.802c-0.051,0.919,0.199,1.683,0.99,2.935v2.247l-0.354-0.166&#xD;&#xA;&#x9;&#x9;c-0.104-0.054-0.202-0.104-0.298-0.152c-0.068-0.029-0.133-0.062-0.196-0.092c-0.042-0.018-0.083-0.036-0.122-0.054&#xD;&#xA;&#x9;&#x9;c-0.119-0.05-0.227-0.092-0.318-0.121c-0.027-0.01-0.051-0.016-0.074-0.021c-0.003-0.003-0.009-0.003-0.012-0.003&#xD;&#xA;&#x9;&#x9;c-0.027-0.009-0.051-0.012-0.075-0.015c-0.119-0.018-0.184,0.009-0.187,0.089v1.338c0,0.315,0.829,1.62,1.51,2.679v0.003&#xD;&#xA;&#x9;&#x9;c0.054,0.634,0.113,1.142,0.173,1.308c0.193,0.538,1.813,3.83,1.914,4.035c0.003,0.002,0.003,0.006,0.006,0.008v1.858&#xD;&#xA;&#x9;&#x9;c0.016,0.013,0.03,0.021,0.042,0.03h-0.042v0.063l-0.276-0.307l-0.003-0.003c-0.071-0.06-0.146-0.119-0.223-0.185&#xD;&#xA;&#x9;&#x9;c-0.122-0.101-0.25-0.211-0.384-0.324c-0.009-0.006-0.015-0.014-0.023-0.021c-0.131-0.116-0.271-0.231-0.407-0.351&#xD;&#xA;&#x9;&#x9;c-0.107-0.092-0.217-0.188-0.327-0.282c-0.589-0.509-1.159-0.996-1.534-1.252c-0.032-0.023-0.065-0.044-0.095-0.063&#xD;&#xA;&#x9;&#x9;c-0.063-0.038-0.116-0.068-0.161-0.089c-0.021-0.012-0.041-0.021-0.062-0.023c-0.068-0.021-0.107-0.003-0.107,0.056v0.973&#xD;&#xA;&#x9;&#x9;c0,0.401,2.568,8.437,3.671,11.733c0,0.004,0,0.004,0.003,0.007c0.25,2.759,0.467,5.179,0.538,5.999&#xD;&#xA;&#x9;&#x9;c0.196,2.28,0.244,5.746,1.656,5.746h1.819c0.211,0.271,0.428,0.679,0.428,1.189c0,0.993,0.595,4.51,0.595,4.51h49.184&#xD;&#xA;&#x9;&#x9;c0,0,0.594-3.517,0.594-4.51c0-0.627,0.327-1.569,0.565-2.179h0.056c0.547,0,0.77,0.989,0.77,0.989s1.174-0.148,1.367-1.338&#xD;&#xA;&#x9;&#x9;c0.193-1.188,0.467-3.023,0.589-4.408c0.057-0.648,0.193-2.186,0.363-4.055h21.322c1.614,0,1.751-0.205,1.953-0.565&#xD;&#xA;&#x9;&#x9;c0.202-0.359,4.159-12.623,4.159-13.119v-0.973c0-0.476-2.331,1.767-3.526,2.69c-0.003,0.004-0.003,0.004-0.006,0.004l-0.071,0.086&#xD;&#xA;&#x9;&#x9;h-0.039c-0.247,0.184-0.431,0.297-0.517,0.297c-0.036,0-0.054-0.018-0.054-0.06v-0.237h-23.34&#xD;&#xA;&#x9;&#x9;c-0.051-0.438-0.074-1.017,0.089-1.347c0.14-0.282,0.615-1.243,1.088-2.218h21.568c0.741,0,1.439-0.223,1.695-0.621&#xD;&#xA;&#x9;&#x9;c0.255-0.396,0.437-1.089,0.785-1.746c0.351-0.656,2.328-3.505,2.328-3.989v-1.335c0-0.592-3.425,1.719-4.1,1.719&#xD;&#xA;&#x9;&#x9;c-0.071,0-0.113-0.027-0.113-0.086v-0.211h-22.104c-0.012-0.423-0.003-1.187,0.19-1.541c0.279-0.502,0.458-0.829,0.904-1.596&#xD;&#xA;&#x9;&#x9;c0.306-0.521,0.678-1.264,0.868-1.975h21.132c0,0,3.223-3.707,3.223-4.004v-1.234c0-0.531-2.696,0.346-3.775,0.39h-0.158&#xD;&#xA;&#x9;&#x9;c-0.083-0.006-0.151-0.021-0.199-0.044h-22.184c-0.137-0.518,0.104-2.046,0.098-2.346c-0.006-0.31,0.949-1.127,0.833-1.87&#xD;&#xA;&#x9;&#x9;c-0.048-0.301-0.167-1.314-0.315-2.429h22.588c0,0,3.113-2.379,3.113-2.774s0-0.909,0-0.909l-0.256-0.318h-0.003&#xD;&#xA;&#x9;&#x9;c-0.838-0.473-3.452-0.601-3.889-1.15h-24.033c-0.107-0.458-0.063-1.85-0.057-2.229c0.003-0.396,1.43-0.942,1.356-1.437&#xD;&#xA;&#x9;&#x9;c-0.039-0.246-0.205-1.709-0.396-3.172h24.164C139.365,51.584,142.418,49.207,142.418,48.709z"/>
</svg>