<svg version="1.2" baseProfile="tiny" viewBox="0 0 218.247 118.434" xmlns:xlink="http://www.w3.org/1999/xlink" xmlns="http://www.w3.org/2000/svg">
<path style="fill:#ffffff;" d="M216.058,52.137L184.2463,52.137L184.2463,25.1021L181.97,25.1021L181.97,10.9871C181.97,10.3784,181.5684,9.8809,181.0773,9.8809L144.5886,9.8809L144.5886,9.8656C142.4083,9.8656,142.4083,8.2371,142.4083,8.2371L142.4083,8.211C142.4083,8.3105,142.2119,8.0121,141.902,7.485C141.699,7.1345,141.4415,6.6797,141.16,6.174C139.9705,4.0386,138.338,0.9996,138.2049,0.9996L138.2049,0.9996L56.9799,0.9996L56.9799,0.9996C56.9799,0.9996,56.9799,0.9996,56.9799,0.9996C56.8468,0.9996,55.2143,4.0386,54.0227,6.1751C53.7411,6.6809,53.4858,7.1345,53.2828,7.4862C52.9729,8.0121,52.7765,8.3105,52.7765,8.2122L52.7765,8.2371C52.7765,9.8656,52.7765,9.8656,50.5962,9.8656L50.5962,9.8809L22.2154,9.8809L22.2154,9.8809C21.7243,9.8809,21.3227,10.3784,21.3227,10.9871L21.3227,22.9383L2.4749,25.2916C1.6652,25.3934,0.9996,26.1455,0.9996,26.9627L0.9996,87.6104C0.9996,88.4276,1.6652,89.1796,2.4749,89.2815L21.3227,91.6395L21.3227,103.6937C21.3227,104.3001,21.7243,104.7987,22.2154,104.7987L50.5962,104.7987C52.7765,104.7987,52.7765,106.6238,52.7765,106.6238L52.7765,117.4344L142.4105,117.4344L142.4105,106.6238C142.4105,106.6238,142.4105,104.7987,144.5886,104.7987L181.0795,104.7987C181.5684,104.7987,181.97,104.3001,181.97,103.6937L181.97,89.5776L184.2485,89.5776L184.2485,62.5414L216.058,62.5414C216.7127,62.5414,217.2474,62.0073,217.2474,61.3535L217.2474,53.3273C217.2474,52.6723,216.7105,52.137,216.058,52.137Z"/>
</svg>